<svg id="Capa_1" data-name="Capa 1" xmlns="http://www.w3.org/2000/svg" viewBox="0 0 45 45"><path d="M42.62,12,37.51,6.87v-5A1.28,1.28,0,0,0,36.23.63H8.77A1.28,1.28,0,0,0,7.49,1.91v5L2.38,12a1.3,1.3,0,0,0-.38.91v30.2a1.28,1.28,0,0,0,1.28,1.28H41.72A1.28,1.28,0,0,0,43,43.09V12.89a1.25,1.25,0,0,0-.38-.91ZM27.9,3.19H35V6.12H27.9Zm-8.24,0h5.68V6.12H19.66Zm3.86,5.49L20.6,11.61H16l2.93-2.93ZM10.05,3.19H17.1V6.12h-7V3.19Zm19.4,9.7V41.81H4.56V13.42L9.3,8.68h6L12,12a1.29,1.29,0,0,0,.91,2.19h8.24a1.26,1.26,0,0,0,.9-.37l5.12-5.12h6L29.83,12a1.3,1.3,0,0,0-.38.91Zm11,28.92H32V13.42l4.21-4.21,4.21,4.21V41.81Z"/></svg>