<svg id="Capa_1" data-name="Capa 1" xmlns="http://www.w3.org/2000/svg" viewBox="0 0 45 45"><path d="M37.69,2a4,4,0,0,0-3.46-2H22.58a4,4,0,0,0-3.95,4V9.23a4,4,0,0,0,3.95,3.95h7.91a1.33,1.33,0,0,1,1.32,1.32V24.86a25.26,25.26,0,0,0-11.66-.39A11.9,11.9,0,1,0,12,45a69,69,0,0,0,32.32-8.14A1.33,1.33,0,0,0,45,35.68V30A57.13,57.13,0,0,0,37.69,2Zm4.67,32.87A66.05,66.05,0,0,1,12,42.36a9.26,9.26,0,0,1-7.29-3.55,9.37,9.37,0,0,1-1.76-8,9.25,9.25,0,0,1,6.65-6.68A9.35,9.35,0,0,1,17,25.33a24.07,24.07,0,0,0-3,1.26A1.32,1.32,0,0,0,15.18,29a22.47,22.47,0,0,1,20,0,1.32,1.32,0,1,0,1.18-2.36c-.63-.31-1.26-.59-1.91-.85V14.5a4,4,0,0,0-4-3.95H29.18v-4a1.32,1.32,0,0,0-1.32-1.32H25.22a1.32,1.32,0,0,0,0,2.64h1.32v2.64h-4a1.32,1.32,0,0,1-1.31-1.32V4a1.32,1.32,0,0,1,1.31-1.32H34.23a1.32,1.32,0,0,1,1.16.66,54.42,54.42,0,0,1,7,26.66v4.91Z"/></svg>