<svg id="Capa_1" data-name="Capa 1" xmlns="http://www.w3.org/2000/svg" viewBox="0 0 45 45"><path d="M42.36,23l-5.65-5.65,2.8-2.8-1.86-1.86L41.38,9l-5.6-5.6L32.05,7.09,30.19,5.23,27.39,8,21.74,2.37a7.85,7.85,0,0,0-11.08,0l-1,1L22.73,16.42.34,38.8l5.6,5.59L28.32,22,41.38,35.07l1-1A7.83,7.83,0,0,0,42.36,23ZM35.78,7.09,37.65,9l-1.87,1.86L33.92,9ZM13.51,3.47a5.19,5.19,0,0,1,6.36.77l5.65,5.65-2.79,2.8ZM10.6,32.27l1.87,1.86L10.6,36,8.74,34.13ZM4.07,38.8,6.87,36l1.87,1.86-2.8,2.8Zm10.26-6.53L12.47,30.4,24.59,18.28l1.87,1.87ZM24.59,14.55,30.19,9l5.59,5.59-5.59,5.6ZM41.27,31.23,32.05,22l2.8-2.8,5.65,5.65a5.22,5.22,0,0,1,.77,6.37Z"/><path d="M33.56,35.69H28.29L26.2,37.78,22.41,34l-5.15,3.43-1.61,3.23v4.27H42V39L35.3,34ZM18.28,42.28v-1l1-2,2.76-1.85,2.81,2.81v2.09Zm21.1-2v2H27.51V40.19l1.87-1.87h5.27l.9-.89Z"/><path d="M26.2,27.77h2.63v2.64H26.2Z"/><path d="M28.83,30.41h2.64v2.64H28.83Z"/></svg>