<svg id="Capa_1" data-name="Capa 1" xmlns="http://www.w3.org/2000/svg" viewBox="0 0 45 45"><path d="M37.6,11.22,35.72,13.1,32,9.34l1.89-1.89L32,5.57c-1.8,2-5.81,4.78-5.31,7.87-3.14-.51-5.86,3.52-7.86,5.31l1.88,1.88,1.88-1.88,3.77,3.76-1.88,1.88,1.88,1.89c1.8-2,5.81-4.79,5.31-7.87,3.14.5,5.86-3.52,7.86-5.31Zm-9.41,9.41-3.76-3.77A2.66,2.66,0,0,1,28.19,20.63ZM30.07,15a2.66,2.66,0,0,1,0-3.76L33.84,15A2.67,2.67,0,0,1,30.07,15Z"/><path d="M29.13,0c-13.27-.43-21,16.58-12.19,26.28L14.3,28.88l-1.73-1.73L1.76,34.68,0,39.57l5.48,5.48,4.89-1.76,7.54-10.8-1.73-1.73,2.64-2.65C42.8,44.77,58.25,2.78,29.13,0ZM14.45,32.79l-1.28,1.84-2.75-2.74,1.84-1.28ZM8.67,41.08l-2.5.9-3.09-3.1.9-2.5,4.22-3,3.42,3.42ZM29.13,29.23c-17.49-.31-17.49-26.3,0-26.61C46.62,2.93,46.62,28.92,29.13,29.23Z"/></svg>