<svg id="Capa_1" data-name="Capa 1" xmlns="http://www.w3.org/2000/svg" viewBox="0 0 45 45"><path d="M29.11,25.14h-.43l-1.13-2.82a9.26,9.26,0,0,0,4.2-7.75V4A4,4,0,0,0,25,1.23,4.55,4.55,0,0,0,21.87,0H10.61V3.25a4.7,4.7,0,0,0,2.64,4.23v7.09a9.26,9.26,0,0,0,4.2,7.75l-1.13,2.82h-.43A11.91,11.91,0,0,0,4,37V45H41V37A11.91,11.91,0,0,0,29.11,25.14ZM14.37,37H30.64l.92,5.28h-18Zm16.06-2.65H14.57V27.88a14.75,14.75,0,0,1,2.33-.09l5.6,2.84,5.6-2.84a14.83,14.83,0,0,1,2.33.09ZM26.46,4a1.33,1.33,0,0,1,2.65,0V5.32H26.46ZM13.25,2.68h8.62a2,2,0,0,1,1.95,1.95v.69h-8.5a2.07,2.07,0,0,1-2.07-2.07Zm2.64,11.89V8H29.11v6.61a6.61,6.61,0,0,1-13.22,0Zm9.26,8.86,1,2.4L22.5,27.67l-3.61-1.84,1-2.4A9.11,9.11,0,0,0,25.15,23.43ZM6.64,37a9.27,9.27,0,0,1,5.29-8.36v6.93l-1.1,6.71H6.64Zm31.72,5.28H34.24L33.07,35.6V28.68A9.27,9.27,0,0,1,38.36,37Z"/><path d="M26.08,16.84,24.21,15C23,16.22,22,16.22,20.79,15l-1.87,1.87a5.11,5.11,0,0,0,3.58,1.71A5.11,5.11,0,0,0,26.08,16.84Z"/></svg>