<svg id="Capa_1" data-name="Capa 1" xmlns="http://www.w3.org/2000/svg" viewBox="0 0 45 45"><path d="M41,5.58A13.76,13.76,0,0,0,22.5,4.74,13.72,13.72,0,0,0,0,15.28,13.62,13.62,0,0,0,4,25L22.5,43.42,41,25A13.7,13.7,0,0,0,41,5.58ZM39.12,23.11,22.5,39.7,5.88,23.11A11.08,11.08,0,0,1,21.57,7.45l.93.93.93-.93a11.12,11.12,0,0,1,15.69,0,11.08,11.08,0,0,1,0,15.66Z"/><path d="M37.25,9.32a8.47,8.47,0,0,0-12,0L22.5,12.11,19.71,9.32a8.47,8.47,0,0,0-12,0,8.4,8.4,0,0,0,0,11.92L22.5,36,37.25,21.24a8.4,8.4,0,0,0,0-11.92ZM35.39,19.37,22.5,32.25,9.61,19.37a5.78,5.78,0,0,1,0-8.19,5.83,5.83,0,0,1,8.23,0l4.66,4.65,4.66-4.65a5.82,5.82,0,0,1,9.93,4.1,5.73,5.73,0,0,1-1.7,4.09Z"/></svg>