<svg id="Capa_1" data-name="Capa 1" xmlns="http://www.w3.org/2000/svg" viewBox="0 0 45 45"><path d="M39.53,18.57l.87.74,1.78-1.78A9.59,9.59,0,0,0,45,10.69,9.43,9.43,0,0,0,43.09,5l1.85-1.86L43.08,1.22,41.22,3.09A9.57,9.57,0,0,0,28.72,4L26.89,5.8c.33.38.6.72.93,1.08C22.13,12.13,13.4,17,6.9,20.23A12.45,12.45,0,1,0,20.84,40.58a121.06,121.06,0,0,0,18.69-22Zm.83-12.75h0a6.84,6.84,0,0,1,2,4.86,7,7,0,0,1-2,4.91c-.72-1.21-1.16-2.82,0-4.11L38.42,9.7c-.93,1.09-2,1.9-3.37,1.44-.36-1.08,0-2.12,1.45-3.37L34.71,5.84c-1.19,1.09-2.82.75-4.11,0a6.94,6.94,0,0,1,9.76,0ZM19.06,38.63a9.81,9.81,0,1,1-11-16C20,16.65,26.51,11.74,30,8.47a7,7,0,0,0,2.46.68,5.84,5.84,0,0,0,.59,4,5.87,5.87,0,0,0,4,.58,6.84,6.84,0,0,0,.75,2.65A119.18,119.18,0,0,1,19.06,38.63Z"/></svg>