<svg id="Capa_1" data-name="Capa 1" xmlns="http://www.w3.org/2000/svg" viewBox="0 0 45 45"><path d="M31.62,42.07h2.6v2.6h-2.6Z"/><path d="M10.76.35h2.6V3h-2.6Z"/><path d="M44.22,13.24A50.49,50.49,0,0,0,44.34.66,50.6,50.6,0,0,0,31.76.78,43.25,43.25,0,0,0,21.48,3.26a27.52,27.52,0,0,0-9.71,6.1c-4.37,4.37-6.8,9.2-7,14A15.37,15.37,0,0,0,7.37,32.7l-7,6.35L6,44.67l6.35-7a15.46,15.46,0,0,0,9.37,2.64c4.77-.24,9.6-2.67,14-7a27.52,27.52,0,0,0,6.1-9.71,43.25,43.25,0,0,0,2.48-10.28ZM5.86,40.9,4.1,39.14,9,34.75c.21.22.41.44.63.65s.43.42.65.63ZM39.31,22.62a24.8,24.8,0,0,1-5.51,8.77c-3.9,3.91-8.14,6.08-12.26,6.29a12.94,12.94,0,0,1-9.15-3.23L16.87,30c2,.86,7.14,2.37,14-.37l-1-2.41a16.4,16.4,0,0,1-11,.76L23.79,23a14.58,14.58,0,0,0,10.81-.38l-1-2.41a12.59,12.59,0,0,1-7.79.73l5-5a9.78,9.78,0,0,0,6.6-.4l-1-2.41a7.84,7.84,0,0,1-3.42.6l6-6L37.22,6l-6,6a7.84,7.84,0,0,1,.6-3.42l-2.41-1a9.78,9.78,0,0,0-.4,6.6l-5,5a12.66,12.66,0,0,1,.73-7.79l-2.41-1A14.58,14.58,0,0,0,22,21.21l-4.9,4.89a16.48,16.48,0,0,1,.76-11l-2.41-1c-2.74,6.85-1.23,12-.37,14l-4.49,4.48a12.94,12.94,0,0,1-3.23-9.15c.21-4.12,2.38-8.36,6.29-12.26a24.8,24.8,0,0,1,8.77-5.51A41,41,0,0,1,32,3.36,53.88,53.88,0,0,1,42,3.05,53.88,53.88,0,0,1,41.64,13a41,41,0,0,1-2.33,9.64Z"/><path d="M4.24,10.77A3.91,3.91,0,1,0,.33,6.86,3.92,3.92,0,0,0,4.24,10.77Zm0-5.21a1.31,1.31,0,1,1-1.31,1.3A1.31,1.31,0,0,1,4.24,5.56Z"/><path d="M40.74,34.25a3.91,3.91,0,1,0,3.91,3.9A3.91,3.91,0,0,0,40.74,34.25Zm0,5.21a1.31,1.31,0,1,1,1.31-1.31A1.31,1.31,0,0,1,40.74,39.46Z"/></svg>