<svg id="Capa_1" data-name="Capa 1" xmlns="http://www.w3.org/2000/svg" viewBox="0 0 45 45"><path d="M45,19.23l-2.22-1.48L40.5,21.16H37.14a14.58,14.58,0,0,0-3.35-8.06l2.89-2.89L34.79,8.32,31.9,11.21a14.58,14.58,0,0,0-8.06-3.35V4.5l3.41-2.28L25.77,0,22.5,2.18,19.23,0,17.75,2.22,21.16,4.5V7.86a14.58,14.58,0,0,0-8.06,3.35L10.21,8.32,8.32,10.21l2.89,2.89a14.58,14.58,0,0,0-3.35,8.06H4.5L2.22,17.75,0,19.23,2.18,22.5,0,25.77l2.22,1.48L4.5,23.84H7.86a14.58,14.58,0,0,0,3.35,8.06L8.32,34.79l1.89,1.89,2.89-2.89a14.58,14.58,0,0,0,8.06,3.35V40.5l-3.41,2.28L19.23,45l3.27-2.18L25.77,45l1.48-2.22L23.84,40.5V37.14a14.58,14.58,0,0,0,8.06-3.35l2.89,2.89,1.89-1.89L33.79,31.9a14.58,14.58,0,0,0,3.35-8.06H40.5l2.28,3.41L45,25.77,42.82,22.5ZM22.5,34.53a12,12,0,1,1,12-12,12,12,0,0,1-12,12Z"/><path d="M26.51,14.48a4,4,0,1,0,4,4A4,4,0,0,0,26.51,14.48Zm0,5.35a1.34,1.34,0,1,1,1.34-1.34A1.34,1.34,0,0,1,26.51,19.83Z"/><path d="M18.49,22.5a4,4,0,1,0,4,4,4,4,0,0,0-4-4Zm0,5.35a1.34,1.34,0,1,1,1.34-1.34A1.34,1.34,0,0,1,18.49,27.85Z"/><path d="M15.82,17.15h2.67v2.68H15.82Z"/><path d="M26.51,25.17h2.67v2.68H26.51Z"/></svg>