<?xml version="1.0" encoding="utf-8"?>
<!-- Generator: Adobe Illustrator 22.0.0, SVG Export Plug-In . SVG Version: 6.00 Build 0)  -->
<svg xmlns:xlink="http://www.w3.org/1999/xlink" version="1.1" id="Capa_1" xmlns="http://www.w3.org/2000/svg" x="0px"
     y="0px"
     viewBox="0 0 58 58.8" style="enable-background:new 0 0 58 58.8;" xml:space="preserve">
<style type="text/css">
	.st0{fill:none;}
	.st1{fill:none;stroke:#F39D9A;stroke-width:0.5;stroke-miterlimit:10;}
	.st2{fill:#F39D9A;}
</style>
    <path class="st0" d="M29.1,29.4c-0.1,0-0.1,0-0.1,0s-0.1,0-0.1,0C28.9,29.4,29.1,29.4,29.1,29.4z"/>
    <rect x="9.9" y="10.2" transform="matrix(0.7071 -0.7071 0.7071 0.7071 -12.2774 29.1098)" class="st1" width="38.3"
          height="38.3"/>
    <path class="st0" d="M30.5,31.8c0.1-0.4,0.1-0.7,0.2-1.1c-0.1,0-0.2-0.1-0.3-0.1c-0.5-0.1-0.9-0.3-1.3-0.7c-0.7-0.7-1.1-1.5-1.2-2.4
	c0-0.1,0-0.2,0-0.4C27.4,27.1,27,27,26.4,27c-0.1,0.4-0.2,0.7-0.2,1c-0.2,1-0.1,1.9,0.5,2.8c0.3,0.5,0.8,0.8,1.3,1
	C28.9,31.9,29.7,31.8,30.5,31.8z"/>
    <g>
	<g>
		<g>
			<path class="st2" d="M36.4,31.6c-0.2-0.2-0.4-0.2-0.7-0.1c0-0.1,0-0.1,0-0.2c0-0.2-0.1-0.4-0.3-0.6c-0.3-0.2-0.7-0.1-1.2,0.1V25
				c0,0,0,0,0,0c0,0,0,0,0-0.1c0,0,0,0,0,0c0,0,0,0,0-0.1c0,0,0,0,0,0c0,0,0,0,0,0l-2.1-2c-0.1-0.1-0.1-0.1-0.2-0.1h-6.2
				c-0.1,0-0.1,0-0.2,0.1l-2.1,2c0,0,0,0,0,0l0,0c0,0,0,0,0,0.1c0,0,0,0,0,0c0,0,0,0,0,0.1c0,0,0,0,0,0v5.1c-0.3,0-0.7,0-1.1,0H20
				c-0.1,0-0.3,0.1-0.3,0.3V35c0,0.1,0.1,0.3,0.3,0.3h2.1c0.3,0.1,2.5,0.8,5.4,0.8c2.6,0,5.9-0.6,8.6-2.8c0.1,0,0.6-0.4,0.6-0.9
				C36.7,32.1,36.7,31.8,36.4,31.6z M21.9,34.7h-1.7v-4.1h1.7V34.7z M35,31.1c0.1,0.1,0.1,0.2,0.1,0.2c0,0.2-0.2,0.3-0.3,0.5
				c-0.1,0-0.1,0-0.2,0.1c-0.2,0.1-0.4,0.2-0.6,0.2v-0.7C34.5,31.2,34.9,31,35,31.1z M31.7,23.3l1.5,1.5H30l-0.3-1.5H31.7z
				 M28.2,23.3h1l0.3,1.5h-1.7L28.2,23.3z M27.8,25.3h1.8v1.8h-1.8V25.3z M25.7,23.3h2l-0.3,1.5h-3.2L25.7,23.3z M23.7,25.3h3.5v2.1
				c0,0.1,0.1,0.3,0.3,0.3h2.3c0.1,0,0.3-0.1,0.3-0.3v-2.1h3.5v7c-0.5,0.2-1.2,0.4-1.9,0.6c0-0.1,0-0.2,0.1-0.3
				c0-0.5-0.1-0.8-0.3-1.1c-0.4-0.4-0.9-0.3-0.9-0.3c-2.4,0-2.8-0.2-3.2-0.5c-0.5-0.3-1-0.6-3.5-0.7V25.3z M35.8,32.8
				c-5.3,4.2-12.2,2.3-13.4,2v-4.2c3.5,0,4.1,0.4,4.6,0.7c0.5,0.3,1,0.6,3.5,0.5c0,0,0.3,0,0.5,0.2c0.1,0.1,0.2,0.4,0.2,0.7
				c0,0.1,0,0.3-0.5,0.5c0,0,0,0,0,0s0,0,0,0c-0.5,0.2-1.5,0.4-3.9,0c-0.1,0-0.3,0.1-0.3,0.2c0,0.1,0.1,0.3,0.2,0.3
				c0.9,0.1,1.7,0.2,2.3,0.2c0.8,0,1.4-0.1,1.8-0.2c1.9-0.4,3.2-0.9,4-1.3c0.5-0.2,1-0.4,1.1-0.3c0.1,0.1,0.1,0.2,0.1,0.2
				C36.2,32.5,35.9,32.7,35.8,32.8z"/>
		</g>
        <g>
			<circle class="st2" cx="21" cy="31.4" r="0.3"/>
		</g>
	</g>
        <g>
		<path class="st2" d="M38.6,30.9l-0.6-0.3l0.3,2.1l1.6-1.3l-0.7-0.3c1.4-4.5,0.2-9.4-3.1-12.7c-0.1-0.1-0.4-0.1-0.5,0
			c-0.1,0.1-0.1,0.4,0,0.5C38.7,22.1,39.8,26.7,38.6,30.9z"/>
	</g>
        <g>
		<path class="st2" d="M32,38.6c-4,1.9-8.7,1.4-12.3-1.2l0.4-0.5l-2.1-0.4l0.7,2l0.4-0.5c2.3,1.6,4.9,2.5,7.6,2.5
			c1.8,0,3.7-0.4,5.5-1.2c0.2-0.1,0.3-0.3,0.2-0.5C32.4,38.6,32.2,38.5,32,38.6z"/>
	</g>
</g>
</svg>
