<?xml version="1.0" encoding="utf-8"?>
<!-- Generator: Adobe Illustrator 22.0.0, SVG Export Plug-In . SVG Version: 6.00 Build 0)  -->
<svg xmlns:xlink="http://www.w3.org/1999/xlink" version="1.1" id="Capa_1" xmlns="http://www.w3.org/2000/svg" x="0px"
     y="0px"
     viewBox="0 0 58 58.8" style="enable-background:new 0 0 58 58.8;" xml:space="preserve">
<style type="text/css">
	.st0{fill:none;}
	.st1{fill:none;stroke:#F39D9A;stroke-width:0.5;stroke-miterlimit:10;}
	.st2{fill:#F39D9A;}
</style>
    <path class="st0" d="M29.1,29.4c-0.1,0-0.1,0-0.1,0s-0.1,0-0.1,0C28.9,29.4,29.1,29.4,29.1,29.4z"/>
    <path class="st0" d="M29.1,29.6c0-0.2-0.1-0.3-0.1-0.3l0-0.2c0,0,0,0-0.1-0.1v0.8C29,29.7,29,29.6,29.1,29.6z"/>
    <rect x="9.9" y="10.2" transform="matrix(0.7071 -0.7071 0.7071 0.7071 -12.2774 29.1098)" class="st1" width="38.3"
          height="38.3"/>
    <g>
	<g>
		<path class="st2" d="M31.9,34.9C31.9,34.9,31.9,34.9,31.9,34.9c0.2,0,0.3-0.1,0.3-0.2l0.7-5.2c0-0.1-0.1-0.3-0.2-0.3
			c-0.1,0-0.3,0.1-0.3,0.2l-0.7,5.2C31.6,34.8,31.7,34.9,31.9,34.9z"/>
	</g>
        <g>
		<path class="st2" d="M26.1,34.9C26.1,34.9,26.1,34.9,26.1,34.9c0.2,0,0.3-0.2,0.3-0.3l-0.7-5.2c0-0.1-0.2-0.2-0.3-0.2
			c-0.1,0-0.2,0.1-0.2,0.3l0.7,5.2C25.9,34.9,26,34.9,26.1,34.9z"/>
	</g>
        <g>
		<path class="st2" d="M37.5,27.4v-0.8c0-0.1-0.1-0.3-0.3-0.3h-1.1l-3.5-3.8c-0.1-0.1-0.3-0.1-0.4,0c-0.1,0.1-0.1,0.3,0,0.4l3.2,3.5
			H22.6l3.2-3.5c0.1-0.1,0.1-0.3,0-0.4c-0.1-0.1-0.3-0.1-0.4,0l-3.5,3.8h-1.1c-0.1,0-0.3,0.1-0.3,0.3v0.8c0,0.5,0.4,0.9,0.8,1
			l1.9,6.8c0.2,0.7,0.8,1.1,1.5,1.1h8.5c0.7,0,1.3-0.5,1.5-1.1l0.2-0.8c0.1,0,0.3,0,0.4,0c1.1,0,2.1-0.9,2.1-2.1
			c0-0.9-0.6-1.7-1.4-2l0.6-2C37.1,28.3,37.5,27.9,37.5,27.4z M21,27.4v-0.5h16v0.5c0,0.3-0.2,0.5-0.5,0.5H21.5
			C21.2,27.9,21,27.7,21,27.4z M37,32.3c0,0.9-0.7,1.6-1.6,1.6c-0.9,0-1.6-0.7-1.6-1.6c0-0.9,0.7-1.6,1.6-1.6
			C36.3,30.8,37,31.5,37,32.3z M35.6,30.3c-0.1,0-0.1,0-0.2,0c-1.1,0-2.1,0.9-2.1,2.1c0,0.8,0.5,1.5,1.2,1.9l-0.2,0.9
			c-0.1,0.4-0.5,0.7-1,0.7h-8.5c-0.5,0-0.9-0.3-1-0.8l-1.9-6.7h14.3L35.6,30.3z"/>
	</g>
        <g>
		<path class="st2" d="M29,34.9c0.1,0,0.3-0.1,0.3-0.3v-5.2c0-0.1-0.1-0.3-0.3-0.3c-0.1,0-0.3,0.1-0.3,0.3v5.2
			C28.7,34.8,28.9,34.9,29,34.9z"/>
	</g>
        <g>
		<path class="st2" d="M35.2,31.5v0.6h-0.6c-0.1,0-0.3,0.1-0.3,0.3c0,0.1,0.1,0.3,0.3,0.3h0.6v0.6c0,0.1,0.1,0.3,0.3,0.3
			c0.1,0,0.3-0.1,0.3-0.3v-0.6h0.6c0.1,0,0.3-0.1,0.3-0.3c0-0.1-0.1-0.3-0.3-0.3h-0.6v-0.6c0-0.1-0.1-0.3-0.3-0.3
			C35.3,31.3,35.2,31.4,35.2,31.5z"/>
	</g>
</g>
</svg>
