<?xml version="1.0" encoding="utf-8"?>
<!-- Generator: Adobe Illustrator 22.0.0, SVG Export Plug-In . SVG Version: 6.00 Build 0)  -->
<svg xmlns:xlink="http://www.w3.org/1999/xlink" version="1.1" id="Capa_1" xmlns="http://www.w3.org/2000/svg" x="0px"
     y="0px"
     viewBox="0 0 496 496" style="enable-background:new 0 0 496 496;" xml:space="preserve">
<style type="text/css">
	.st0{fill:#DF9D9A;}
</style>
    <path class="st0" d="M478.5,234.1c-7.3-6.8-17.2-11-27.3-11.5c-11.4-0.6-22,3.5-30,11.5L367,288.2c-1.1-1.9-2.3-3.6-3.7-5.3
	c-6.7-8-16.4-12.4-27.5-12.4h-76c-14.3,0-28.3-1.9-41.5-5.6c-34.5-9.6-67.5-2.6-95.3,20.3c-11.3,9.3-19.6,19.4-24.8,26.8l-13.6-13.3
	c-1.8-1.8-4.2-2.7-6.7-2.7c0,0,0,0-0.1,0c-2.6,0-5.1,1.1-6.9,3L4.7,368.3c-1.8,1.9-2.7,4.3-2.7,6.9c0.1,2.6,1.1,5,3,6.8l112,107.4
	c1.9,1.8,4.2,2.7,6.6,2.7c2.5,0,5-1,6.9-2.9l65.6-67.8c1.8-1.9,2.8-4.4,2.7-7c0-2.6-1.1-5-2.9-6.8l-5.7-5.6l13.1-1.5
	c7.9-0.9,16-1.4,23.9-1.4h115.6c18.8,0,34.7-4.1,47.4-12.3c0.1-0.1,0.2-0.1,0.3-0.2c4.5-3.2,8.7-6.9,12.2-11.2l77.9-92.3
	C493.9,267.3,493,247.6,478.5,234.1z M123.3,468.8l-98.1-94.1l52.9-55.3l97.5,95.3L123.3,468.8z M465.9,270.6L388,362.9
	c-2.5,2.9-5.3,5.5-8.4,7.7c-9.5,6.1-21.9,9.2-36.9,9.2H227.1c-8.7,0-17.5,0.5-26.1,1.5l-28.7,3.2l-60.2-58.8
	c4.2-6.2,11.9-16.3,23-25.5c23.2-19,49.4-24.6,78.1-16.7c14.9,4.2,30.6,6.3,46.6,6.3h76c13.6,0,17.3,11.9,17.3,18.9
	c0,5.1-1.6,10-4.5,13.4c-3.1,3.7-7.5,5.5-13.1,5.5h-66.1c-5.3,0-9.6,4.3-9.6,9.7s4.3,9.7,9.6,9.7h66.1c11.2,0,21-4.4,27.7-12.4
	c5.6-6.6,8.8-15.3,9-24.6l62.5-62.3c8.9-9,22.9-6.7,30.7,0.5C469.5,252.1,474.9,259.9,465.9,270.6z"/>
    <path class="st0" d="M239.4,334.8c-1.2-5.2-6.4-8.4-11.5-7.2c-5.2,1.2-8.4,6.4-7.2,11.6l0.1,0.4c1,4.5,5,7.5,9.3,7.5
	c0.7,0,1.5-0.1,2.2-0.3c5.2-1.2,8.4-6.4,7.2-11.6L239.4,334.8z"/>
    <path class="st0" d="M66.9,211.9h93.5c5.1,0,9.8-1.7,13.6-4.5c3.8,2.8,8.5,4.5,13.6,4.5h93.5c5.1,0,9.8-1.7,13.6-4.5
	c3.8,2.8,8.5,4.5,13.6,4.5h93.5c12.8,0,23.2-10.5,23.2-23.4v-43.9c0-19.7-11-36.9-27.4-45.3c8-9.7,12.7-22.1,12.7-35.6
	c0-30.8-24.8-55.8-55.4-55.8s-55.4,25-55.4,55.8c0,13.5,4.8,25.9,12.7,35.6c-7.1,3.7-13.2,8.9-17.8,15.4
	c-4.6-6.4-10.7-11.7-17.8-15.4c8-9.7,12.7-22.1,12.7-35.6c0-30.8-24.8-55.8-55.4-55.8s-55.4,25-55.4,55.8c0,13.5,4.8,25.9,12.7,35.6
	c-7.1,3.7-13.2,8.9-17.8,15.4c-4.6-6.4-10.7-11.7-17.8-15.4c8-9.7,12.7-22.1,12.7-35.5c0-30.8-24.8-55.8-55.4-55.8
	c-30.5,0-55.4,25-55.4,55.8c0,13.5,4.8,25.9,12.7,35.6c-16.4,8.5-27.4,25.6-27.4,45.3v43.9C43.6,201.4,54.1,211.9,66.9,211.9z
	 M355.3,27.3c19.9,0,36.2,16.3,36.2,36.4c0,20.1-16.2,36.4-36.2,36.4c-19.9,0-36.2-16.3-36.2-36.4C319.1,43.6,335.4,27.3,355.3,27.3
	z M330.4,113.5c7.5,3.8,16,6,24.9,6c9,0,17.4-2.2,24.9-6c14.9,2.6,25.9,15.6,25.9,31.1v43.9c0,2.2-1.8,4.1-4,4.1h-93.5
	c-2.2,0-4-1.8-4-4.1v-43.9C304.5,129.1,315.5,116.1,330.4,113.5z M234.5,27.3c19.9,0,36.2,16.3,36.2,36.4
	c0,20.1-16.2,36.4-36.2,36.4c-19.9,0-36.2-16.3-36.2-36.4S214.5,27.3,234.5,27.3z M209.5,113.5c7.5,3.8,16,6,24.9,6s17.4-2.2,24.9-6
	c14.9,2.6,25.9,15.6,25.9,31.1v43.9c0,2.2-1.8,4.1-4,4.1h-93.5c-2.2,0-4-1.8-4-4.1v-43.9C183.7,129.1,194.6,116.1,209.5,113.5z
	 M113.7,27.3c19.9,0,36.2,16.3,36.2,36.4c0,20.1-16.2,36.4-36.2,36.4S77.5,83.8,77.5,63.7C77.5,43.6,93.7,27.3,113.7,27.3z
	 M62.8,144.6c0-15.5,11-28.5,25.9-31.1c7.5,3.8,16,6,24.9,6s17.4-2.2,24.9-6c14.9,2.6,25.9,15.6,25.9,31.1v43.9c0,2.2-1.8,4.1-4,4.1
	H66.9c-2.2,0-4-1.8-4-4.1V144.6z"/>
</svg>
