<?xml version="1.0" encoding="utf-8"?>
<!-- Generator: Adobe Illustrator 22.0.0, SVG Export Plug-In . SVG Version: 6.00 Build 0)  -->
<svg xmlns:xlink="http://www.w3.org/1999/xlink" version="1.1" id="Capa_1" xmlns="http://www.w3.org/2000/svg" x="0px"
     y="0px"
     viewBox="0 0 58 58.8" style="enable-background:new 0 0 58 58.8;" xml:space="preserve">
<style type="text/css">
	.st0{fill:none;}
	.st1{fill:none;stroke:#F39D9A;stroke-width:0.5;stroke-miterlimit:10;}
	.st2{fill:#F39D9A;}
</style>
    <path class="st0" d="M29.1,29.4c-0.1,0-0.1,0-0.1,0s-0.1,0-0.1,0C28.9,29.4,29.1,29.4,29.1,29.4z"/>
    <rect x="9.9" y="10.2" transform="matrix(0.7071 -0.7071 0.7071 0.7071 -12.2774 29.1098)" class="st1" width="38.3"
          height="38.3"/>
    <path class="st0" d="M30.5,31.8c0.1-0.4,0.1-0.7,0.2-1.1c-0.1,0-0.2-0.1-0.3-0.1c-0.5-0.1-0.9-0.3-1.3-0.7c-0.7-0.7-1.1-1.5-1.2-2.4
	c0-0.1,0-0.2,0-0.4C27.4,27.1,27,27,26.4,27c-0.1,0.4-0.2,0.7-0.2,1c-0.2,1-0.1,1.9,0.5,2.8c0.3,0.5,0.8,0.8,1.3,1
	C28.9,31.9,29.7,31.8,30.5,31.8z"/>
    <g>
	<g>
		<path class="st2" d="M37.5,25L37.5,25C37.5,25,37.5,25,37.5,25C37.5,25,37.5,25,37.5,25C37.4,25,37.4,25,37.5,25L34.7,22
			c0,0,0,0,0,0c0,0,0,0-0.1,0h0c0,0-0.1,0-0.1,0h-11c-0.1,0-0.2,0.1-0.2,0.2L20.6,25c0,0,0,0,0,0c0,0,0,0,0,0c0,0,0,0,0,0l0,0
			c0,0,0,0,0,0c0,0,0,0,0,0c0,0,0,0,0,0c0,0,0,0,0,0c0,0,0,0,0,0c0,0,0,0,0,0l0,0c0,0,0,0,0,0c0,0,0,0,0,0c0,0,0,0,0,0l5.1,5.5
			c0,0,0,0,0,0c-0.5,0.5-0.8,0.9-0.8,1.3v4c0,0.4,0.3,0.7,0.7,0.7h5.3c0,0,0.1,0,0.1,0c0.6-0.1,1.1-0.6,1.1-1.2c0-0.1,0-0.2,0-0.3
			c0.4-0.2,0.6-0.6,0.6-1c0-0.2-0.1-0.4-0.2-0.6c0.2-0.2,0.3-0.5,0.3-0.8c0-0.3-0.1-0.6-0.3-0.8c0.1-0.2,0.3-0.4,0.3-0.8
			c0-0.2-0.1-0.4-0.2-0.6l5.1-5.5v0c0,0,0,0,0,0c0,0,0,0,0,0l0,0h0c0,0,0,0,0,0c0,0,0,0,0,0c0,0,0,0,0,0l0,0
			C37.5,25.1,37.5,25.1,37.5,25z M33.9,22.4l-2.2,2.3l-2.2-2.3H33.9z M29,30.3c0.1-0.4,0.1-0.9,0.1-1.5c-0.1-1.2-0.7-2-1.4-2
			c-0.3,0-0.5,0-0.6,0l-0.5-1.5h4.8l-1.5,4.9H29z M31.2,24.9h-4.3l2.2-2.3L31.2,24.9z M26.2,24.7l-2.2-2.3h4.3L26.2,24.7z
			 M23.5,22.5l2.2,2.3h-4.3L23.5,22.5z M21.3,25.4h4.7l0.6,1.8v0c0.1,0.5,0.3,1.4,0.2,1.7c-0.1,0.5-0.5,1-0.8,1.4L21.3,25.4z
			 M31.8,33.9c0.1,0.1,0.2,0.3,0.2,0.5c0,0.3-0.2,0.6-0.5,0.6c-0.1,0-0.1,0.1-0.2,0.2c0,0.1,0,0.2,0,0.2c0.1,0.1,0.1,0.2,0.1,0.3
			c0,0.3-0.3,0.6-0.6,0.7c0,0,0,0,0,0h-5.3c-0.1,0-0.1-0.1-0.1-0.1v-4c0-0.2,0.4-0.6,0.7-1c0.5-0.6,1.1-1.3,1.3-2.1
			c0.1-0.4-0.1-1.3-0.1-1.7c0.1,0,0.3,0,0.5,0c0.5,0,0.8,0.7,0.9,1.5c0.1,0.8-0.1,1.4-0.1,1.6c0,0.1,0,0.2,0,0.2
			c0.1,0.1,0.1,0.1,0.2,0.1h2.8c0.2,0,0.5,0.2,0.5,0.6c0,0.3-0.1,0.5-0.2,0.5c-0.1,0.1-0.1,0.2-0.1,0.3c0,0.1,0.1,0.2,0.2,0.3l0,0
			c0.1,0.1,0.2,0.2,0.2,0.5c0,0.2-0.1,0.4-0.3,0.5c-0.1,0-0.1,0.1-0.1,0.2C31.7,33.7,31.7,33.8,31.8,33.9z M32,30.5
			c-0.1-0.1-0.3-0.1-0.5-0.1h-1.1l1.5-4.9h4.7L32,30.5z M32.3,24.9l2.2-2.3l2.2,2.3H32.3z"/>
	</g>
        <g>
		<path class="st2" d="M23,31.7c-0.6,0-1,0.5-1,1v3.1c0,0.6,0.5,1,1,1c0.6,0,1-0.5,1-1v-3.1C24.1,32.2,23.6,31.7,23,31.7z
			 M23.6,35.8c0,0.3-0.2,0.5-0.5,0.5c-0.3,0-0.5-0.2-0.5-0.5v-3.1c0-0.3,0.2-0.5,0.5-0.5c0.3,0,0.5,0.2,0.5,0.5V35.8z"/>
	</g>
</g>
</svg>
