<?xml version="1.0" encoding="utf-8"?>
<!-- Generator: Adobe Illustrator 22.0.0, SVG Export Plug-In . SVG Version: 6.00 Build 0)  -->
<svg xmlns:xlink="http://www.w3.org/1999/xlink" version="1.1" id="Capa_1" xmlns="http://www.w3.org/2000/svg" x="0px"
     y="0px"
     viewBox="0 0 496 496" style="enable-background:new 0 0 496 496;" xml:space="preserve">
<style type="text/css">
	.st0{fill:#DF9D9A;}
</style>
    <path class="st0" d="M239.4,334.8c-1.2-5.2-6.4-8.4-11.5-7.2c-5.2,1.2-8.4,6.4-7.2,11.6l0.1,0.4c1,4.5,5,7.5,9.3,7.5
	c0.7,0,1.5-0.1,2.2-0.3c5.2-1.2,8.4-6.4,7.2-11.6L239.4,334.8z"/>
    <g>
	<path class="st0" d="M248,304c30.9,0,56-25.1,56-56c0-30.9-25.1-56-56-56s-56,25.1-56,56C192,278.9,217.1,304,248,304z M248,208
		c22.1,0,40,17.9,40,40s-17.9,40-40,40s-40-17.9-40-40S225.9,208,248,208z"/>
        <path class="st0" d="M240,128h16v16h-16V128z"/>
        <path class="st0" d="M400,288h16v16h-16V288z"/>
        <path class="st0" d="M80,288h16v16H80V288z"/>
        <path class="st0" d="M322.6,398.5c28.4-14.1,52.6-36.1,69.4-64c5.2,1,10.6,1.5,16,1.5c48.5,0,88-39.5,88-88s-39.5-88-88-88
		c-5.5,0-10.8,0.6-16,1.5c-14.2-23.6-33.9-43.3-57.5-57.5c1-5.2,1.5-10.6,1.5-16c0-48.5-39.5-88-88-88s-88,39.5-88,88
		c0,5.5,0.6,10.8,1.5,16c-23.6,14.2-43.3,33.9-57.5,57.5c-5.2-1-10.6-1.5-16-1.5c-48.5,0-88,39.5-88,88s39.5,88,88,88
		c5.5,0,10.8-0.6,16-1.5c16.8,27.9,41,50,69.4,64L146.2,480H120v16h256v-16h-26.2L322.6,398.5z M332.9,480h-15.1l-23.5-70.5
		c4.6-1.3,9.1-2.9,13.6-4.6L332.9,480z M248,416c10.4,0,20.6-1,30.6-2.9l6.3,18.9h-73.8l6.3-18.9C227.4,415,237.6,416,248,416z
		 M205.8,448h84.5l10.7,32H195.1L205.8,448z M362.5,303.8c7-18.9,25-31.8,45.5-31.8c20.5,0,38.5,12.9,45.5,31.8
		C441.1,313.9,425.2,320,408,320S374.9,313.9,362.5,303.8z M176,248c0-25.7-11.1-48.7-28.7-64.8c9.3-14.4,21.5-26.6,35.9-35.9
		c16.1,17.6,39.2,28.7,64.8,28.7s48.7-11.1,64.8-28.7c14.4,9.3,26.6,21.5,35.9,35.9C331.1,199.3,320,222.3,320,248
		c0,25.7,11.2,48.9,28.9,65c-22,34.1-60.1,55-100.9,55s-78.8-20.9-100.9-55C164.8,296.9,176,273.7,176,248L176,248z M224,72
		c0-13.2,10.8-24,24-24c13.2,0,24,10.8,24,24s-10.8,24-24,24S224,85.2,224,72L224,72z M202.5,143.8c7-18.9,25-31.8,45.5-31.8
		c20.5,0,38.5,12.9,45.5,31.8C281.1,153.9,265.2,160,248,160S214.9,153.9,202.5,143.8L202.5,143.8z M384,232c0-13.2,10.8-24,24-24
		s24,10.8,24,24s-10.8,24-24,24S384,245.2,384,232z M480,248c0,16.2-5.4,31.1-14.5,43.2c-6.7-13.1-17.7-23.5-31-29.4
		c8.2-7.3,13.5-17.9,13.5-29.7c0-22.1-17.9-40-40-40s-40,17.9-40,40c0,11.8,5.3,22.4,13.5,29.7c-13.3,6-24.2,16.3-31,29.4
		c-9.1-12-14.5-27-14.5-43.2c0-39.7,32.3-72,72-72S480,208.3,480,248z M376,166.1c-5,2-9.8,4.4-14.4,7.2c-10.2-15.5-23.5-28.8-39-39
		c2.8-4.5,5.3-9.3,7.2-14.4C348.4,131.8,364.2,147.6,376,166.1L376,166.1z M248,16c39.7,0,72,32.3,72,72c0,16.2-5.4,31.1-14.5,43.2
		c-6.7-13.1-17.7-23.5-31-29.4C282.7,94.4,288,83.8,288,72c0-22.1-17.9-40-40-40s-40,17.9-40,40c0,11.8,5.3,22.4,13.5,29.7
		c-13.3,6-24.2,16.3-31,29.4c-9.1-12-14.5-27-14.5-43.2C176,48.3,208.3,16,248,16L248,16z M166.1,120c2,5,4.4,9.8,7.2,14.4
		c-15.5,10.2-28.8,23.5-39,39c-4.5-2.8-9.3-5.3-14.4-7.2C131.8,147.6,147.6,131.8,166.1,120z M88,176c39.7,0,72,32.3,72,72
		c0,16.2-5.4,31.1-14.5,43.2c-6.7-13.1-17.7-23.5-31-29.4c8.2-7.3,13.5-17.9,13.5-29.7c0-22.1-17.9-40-40-40s-40,17.9-40,40
		c0,11.8,5.3,22.4,13.5,29.7c-13.3,6-24.2,16.3-31,29.4c-9.1-12-14.5-27-14.5-43.2C16,208.3,48.3,176,88,176L88,176z M64,232
		c0-13.2,10.8-24,24-24s24,10.8,24,24s-10.8,24-24,24S64,245.2,64,232L64,232z M42.5,303.8c7-18.9,25-31.8,45.5-31.8
		c20.5,0,38.5,12.9,45.5,31.8C121.1,313.9,105.2,320,88,320S54.9,313.9,42.5,303.8z M120,329.9c5-2,9.8-4.4,14.4-7.2
		c25,38,67.8,61.3,113.7,61.3s88.6-23.3,113.7-61.3c4.5,2.8,9.3,5.3,14.4,7.2c-27.8,43.5-76,70.1-128,70.1S147.8,373.4,120,329.9
		L120,329.9z M188.1,404.9c4.5,1.7,9,3.3,13.6,4.6L178.2,480h-15.1L188.1,404.9z"/>
        <path class="st0" d="M48,96v16h64V48H96v36.7L13.7,2.3L2.3,13.7L84.7,96H48z"/>
        <path class="st0" d="M48,400h36.7L2.3,482.3l11.3,11.3L96,411.3V448h16v-64H48V400z"/>
        <path class="st0" d="M448,400v-16h-64v64h16v-36.7l82.3,82.3l11.3-11.3L411.3,400H448z"/>
        <path class="st0" d="M448,96h-36.7l82.3-82.3L482.3,2.3L400,84.7V48h-16v64h64V96z"/>
</g>
</svg>
