<?xml version="1.0" encoding="utf-8"?>
<!-- Generator: Adobe Illustrator 22.0.0, SVG Export Plug-In . SVG Version: 6.00 Build 0)  -->
<svg xmlns:xlink="http://www.w3.org/1999/xlink" version="1.1" id="Capa_1" xmlns="http://www.w3.org/2000/svg" x="0px"
     y="0px"
     viewBox="0 0 58 58.8" style="enable-background:new 0 0 58 58.8;" xml:space="preserve">
<style type="text/css">
	.st0{fill:none;}
	.st1{fill:none;stroke:#F39D9A;stroke-width:0.5;stroke-miterlimit:10;}
	.st2{fill:#F39D9A;}
</style>
    <path class="st0" d="M29.1,29.4c-0.1,0-0.1,0-0.1,0s-0.1,0-0.1,0C28.9,29.4,29.1,29.4,29.1,29.4z"/>
    <path class="st0" d="M29.1,29.6c0-0.2-0.1-0.3-0.1-0.3l0-0.2c0,0,0,0-0.1-0.1v0.8C29,29.7,29,29.6,29.1,29.6z"/>
    <rect x="9.9" y="10.2" transform="matrix(0.7071 -0.7071 0.7071 0.7071 -12.2774 29.1098)" class="st1" width="38.3"
          height="38.3"/>
    <g>
	<g>
		<path class="st2" d="M25.9,34.4c-0.2,0-0.3,0.1-0.3,0.3c0,0.2,0.1,0.3,0.3,0.3c0.2,0,0.3-0.1,0.3-0.3
			C26.2,34.5,26.1,34.4,25.9,34.4z"/>
	</g>
        <g>
		<path class="st2" d="M33.9,34.4c-0.2,0-0.3,0.1-0.3,0.3c0,0.2,0.1,0.3,0.3,0.3c0.2,0,0.3-0.1,0.3-0.3C34.2,34.5,34,34.4,33.9,34.4
			z"/>
	</g>
        <g>
		<path class="st2" d="M22.6,30.1H29c0.1,0,0.3-0.1,0.3-0.3v-5.6c0-0.1-0.1-0.3-0.3-0.3h-6.5c-0.1,0-0.3,0.1-0.3,0.3v5.6
			C22.3,30,22.4,30.1,22.6,30.1z M22.8,24.5h6v5.1h-6V24.5z"/>
	</g>
        <g>
		<path class="st2" d="M33.4,31.4h-1c-0.1,0-0.3,0.1-0.3,0.3c0,0.1,0.1,0.3,0.3,0.3h1c0.1,0,0.3-0.1,0.3-0.3
			C33.7,31.5,33.6,31.4,33.4,31.4z"/>
	</g>
        <g>
		<path class="st2" d="M37.5,31.6C37.5,31.6,37.5,31.6,37.5,31.6l0-1.4l0,0c0-2.8-1.4-4.3-2.5-5c-0.6-0.4-1.3-0.6-2.1-0.6h-1.8v-2.2
			c0-0.1-0.1-0.3-0.3-0.3H20.8c-0.1,0-0.3,0.1-0.3,0.3v11.4c0,0.6,0.5,1.1,1.1,1.1h2.5c0.1,0.9,0.9,1.6,1.8,1.6
			c0.9,0,1.7-0.7,1.8-1.6h4.3c0.1,0.9,0.9,1.6,1.8,1.6c0.9,0,1.7-0.7,1.8-1.6h0.7c0.6,0,1.1-0.5,1.1-1.1v-0.5c0,0,0,0,0,0V31.6z
			 M25.9,36c-0.7,0-1.3-0.6-1.3-1.3c0-0.7,0.6-1.3,1.3-1.3c0.7,0,1.3,0.6,1.3,1.3C27.2,35.4,26.6,36,25.9,36z M30.6,34.4h-2.8
			c-0.1-0.9-0.9-1.6-1.8-1.6c-0.9,0-1.7,0.7-1.8,1.6h-2.5c-0.3,0-0.6-0.3-0.6-0.6v-1.9h9.6V34.4z M30.6,31.4H21v-8.7h9.6V31.4z
			 M37,33.1h-0.1c-0.3,0-0.6-0.3-0.6-0.6c0-0.3,0.3-0.6,0.6-0.6H37V33.1z M32.6,25.2h0.3c0.6,0,1.3,0.2,1.8,0.5
			c1,0.7,2.2,1.9,2.3,4.3h-2.8c-0.2-1.1-0.7-2-1.5-2.8V25.2z M33.9,36c-0.7,0-1.3-0.6-1.3-1.3c0-0.7,0.6-1.3,1.3-1.3
			s1.3,0.6,1.3,1.3C35.2,35.4,34.6,36,33.9,36z M36.4,34.4h-0.7c-0.1-0.9-0.9-1.6-1.8-1.6c-0.9,0-1.7,0.7-1.8,1.6h-1v-9.3h1l0,2.2
			c0,0.1,0,0.1,0.1,0.2c0.7,0.7,1.2,1.5,1.4,2.5h-1.2c-0.1,0-0.3,0.1-0.3,0.3c0,0.1,0.1,0.3,0.3,0.3H37v0.9h-0.1
			c-0.6,0-1.1,0.5-1.1,1.1c0,0.6,0.5,1.1,1.1,1.1H37v0.3C37,34.2,36.7,34.4,36.4,34.4z"/>
	</g>
</g>
</svg>
