<?xml version="1.0" encoding="utf-8"?>
<!-- Generator: Adobe Illustrator 22.0.0, SVG Export Plug-In . SVG Version: 6.00 Build 0)  -->
<svg xmlns:xlink="http://www.w3.org/1999/xlink" version="1.1" id="Capa_1" xmlns="http://www.w3.org/2000/svg" x="0px"
     y="0px"
     viewBox="0 0 58 58.8" style="enable-background:new 0 0 58 58.8;" xml:space="preserve">
<style type="text/css">
	.st0{fill:none;}
	.st1{fill:none;stroke:#F39D9A;stroke-width:0.5;stroke-miterlimit:10;}
	.st2{fill:#F39D9A;}
</style>
    <path class="st0" d="M29.1,29.4c-0.1,0-0.1,0-0.1,0s-0.1,0-0.1,0C28.9,29.4,29.1,29.4,29.1,29.4z"/>
    <path class="st0" d="M29.1,29.6c0-0.2-0.1-0.3-0.1-0.3l0-0.2c0,0,0,0-0.1-0.1v0.8C29,29.7,29,29.6,29.1,29.6z"/>
    <rect x="9.9" y="10.2" transform="matrix(0.7071 -0.7071 0.7071 0.7071 -12.2774 29.1098)" class="st1" width="38.3"
          height="38.3"/>
    <g>
	<g>
		<path class="st2" d="M32.4,27.3C32.3,27.2,32.2,27,32,27l-1.8-0.3l-0.8-1.6l0,0c-0.1-0.2-0.2-0.3-0.4-0.3s-0.3,0.1-0.4,0.3
			l-0.8,1.6L26,27c-0.2,0-0.3,0.1-0.4,0.3c-0.1,0.2,0,0.3,0.1,0.5l1.3,1.3l-0.3,1.8c0,0.2,0,0.3,0.2,0.4c0.1,0.1,0.2,0.1,0.3,0.1
			c0.1,0,0.1,0,0.2-0.1l1.6-0.8l1.6,0.8c0.2,0.1,0.3,0.1,0.5,0c0.1-0.1,0.2-0.3,0.2-0.4L30.9,29l1.3-1.3
			C32.4,27.7,32.4,27.5,32.4,27.3z M30.6,28.7c-0.1,0.1-0.2,0.3-0.1,0.4l0.3,1.7L29.2,30c-0.1-0.1-0.3-0.1-0.4,0l-1.5,0.8l0.3-1.7
			c0-0.1,0-0.3-0.1-0.4l-1.2-1.2l1.7-0.2c0.1,0,0.3-0.1,0.3-0.2l0.8-1.5l0.8,1.5c0.1,0.1,0.2,0.2,0.3,0.2l1.7,0.2L30.6,28.7z"/>
	</g>
        <g>
		<path class="st2" d="M36,32.9l1.4-2.9c0-0.1,0-0.2,0-0.3c0-0.1-0.1-0.1-0.2-0.1h-2.7v-4.1c0-0.1,0-0.2-0.1-0.2l-4-2.3
			c-0.9-0.5-1.9-0.5-2.8,0l-4,2.3c-0.1,0-0.1,0.1-0.1,0.2v4.1h-2.7c-0.1,0-0.2,0-0.2,0.1c0,0.1-0.1,0.2,0,0.3l1.4,2.9l-1.4,2.9
			c0,0.1,0,0.2,0,0.2c0,0.1,0.1,0.1,0.2,0.1h4.9c0,0,0,0,0.1,0c0,0,0,0,0,0c0,0,0,0,0,0c0,0,0,0,0,0c0,0,0,0,0,0c0,0,0,0,0-0.1
			c0,0,0,0,0,0c0,0,0-0.1,0-0.1v-2.7l1.7,1c0.4,0.2,0.9,0.4,1.4,0.4c0.5,0,1-0.1,1.4-0.4l1.7-1v2.7c0,0,0,0.1,0,0.1c0,0,0,0,0,0
			c0,0,0,0,0,0.1c0,0,0,0,0,0c0,0,0,0,0,0c0,0,0,0,0,0c0,0,0,0,0,0c0,0,0,0,0.1,0h4.9c0.1,0,0.2,0,0.2-0.1c0-0.1,0-0.2,0-0.2
			L36,32.9z M21.2,35.6l1.3-2.6c0-0.1,0-0.2,0-0.2l-1.3-2.6h2.3v1.5c0,0,0,0,0,0c0,0,0,0,0,0c0,0,0,0,0,0.1c0,0,0,0,0,0l1.8,3.9
			H21.2z M25.4,34.7l-1.1-2.4l0.3,0.2l0.8,0.5V34.7z M30.1,33.7c-0.7,0.4-1.6,0.4-2.2,0l-2.7-1.5l0,0L24,31.5v-5.8l3.9-2.2l0,0
			c0.7-0.4,1.6-0.4,2.2,0l3.9,2.2v5.8l-1,0.6l0,0L30.1,33.7z M32.6,32.9l1.1-0.6l-1.1,2.4V32.9z M32.7,35.6l1.8-3.9c0,0,0,0,0,0
			c0,0,0,0,0-0.1c0,0,0,0,0,0c0,0,0,0,0,0v-1.5h2.3l-1.3,2.6c0,0.1,0,0.2,0,0.2l1.3,2.6H32.7z"/>
	</g>
</g>
</svg>
