<?xml version="1.0" encoding="utf-8"?>
<!-- Generator: Adobe Illustrator 22.0.0, SVG Export Plug-In . SVG Version: 6.00 Build 0)  -->
<svg xmlns:xlink="http://www.w3.org/1999/xlink" version="1.1" id="Capa_1" xmlns="http://www.w3.org/2000/svg" x="0px"
     y="0px"
     viewBox="0 0 58 58.8" style="enable-background:new 0 0 58 58.8;" xml:space="preserve">
<style type="text/css">
	.st0{fill:none;}
	.st1{fill:none;stroke:#F39D9A;stroke-width:0.5;stroke-miterlimit:10;}
	.st2{fill:#F39D9A;}
</style>
    <path class="st0" d="M29.1,29.4c-0.1,0-0.1,0-0.1,0s-0.1,0-0.1,0C28.9,29.4,29.1,29.4,29.1,29.4z"/>
    <path class="st0" d="M29.1,29.6c0-0.2-0.1-0.3-0.1-0.3l0-0.2c0,0,0,0-0.1-0.1v0.8C29,29.7,29,29.6,29.1,29.6z"/>
    <rect x="9.9" y="10.2" transform="matrix(0.7071 -0.7071 0.7071 0.7071 -12.2774 29.1098)" class="st1" width="38.3"
          height="38.3"/>
    <g>
	<g>
		<path class="st2" d="M27.7,22.1h-2.6c-0.1,0-0.3,0.1-0.3,0.3c0,0.1,0.1,0.3,0.3,0.3h2.6c0.1,0,0.3-0.1,0.3-0.3
			C28,22.2,27.9,22.1,27.7,22.1z"/>
	</g>
        <g>
		<path class="st2"
              d="M29,36.6c0.1,0,0.3-0.1,0.3-0.3c0-0.1-0.1-0.3-0.3-0.3c-0.1,0-0.3,0.1-0.3,0.3C28.8,36.5,28.9,36.6,29,36.6z"
        />
	</g>
        <g>
		<path class="st2" d="M26.5,36.6c0.1,0,0.3-0.1,0.3-0.3c0-0.1-0.1-0.3-0.3-0.3c-0.1,0-0.3,0.1-0.3,0.3
			C26.2,36.5,26.3,36.6,26.5,36.6z"/>
	</g>
        <g>
		<path class="st2" d="M23.9,36.6c0.1,0,0.3-0.1,0.3-0.3c0-0.1-0.1-0.3-0.3-0.3c-0.1,0-0.3,0.1-0.3,0.3
			C23.6,36.5,23.7,36.6,23.9,36.6z"/>
	</g>
        <g>
		<path class="st2" d="M28.9,22.1c-0.1,0-0.3,0.1-0.3,0.3c0,0.1,0.1,0.3,0.3,0.3c0.1,0,0.3-0.1,0.3-0.3C29.2,22.2,29,22.1,28.9,22.1
			z"/>
	</g>
        <g>
		<path class="st2" d="M37,25.8h-1.4h-3.2v-3.4c0-0.9-0.7-1.5-1.5-1.5H22c-0.8,0-1.5,0.7-1.5,1.5v14c0,0.8,0.7,1.5,1.5,1.5h8.8
			c0.8,0,1.5-0.7,1.5-1.5v-3.6h3.2H37c0.3,0,0.5-0.2,0.5-0.5v-1.4v-3.1v-1.4C37.5,26,37.3,25.8,37,25.8z M36.7,30.7L36.7,30.7
			c-0.1,0-0.2,0.1-0.3,0.1c0,0,0,0,0,0c-0.1,0-0.2,0.1-0.2,0.1c0,0,0,0,0,0c-0.1,0.1-0.1,0.1-0.2,0.2l0,0c-0.1,0.1-0.1,0.1-0.2,0.2
			c0,0,0,0,0,0c0,0.1-0.1,0.1-0.1,0.2c0,0,0,0,0,0c-0.1,0.2-0.1,0.3-0.2,0.5c0,0,0,0,0,0H27c0,0,0,0,0,0c0-0.1,0-0.2-0.1-0.3
			c0,0,0,0,0,0c0-0.1-0.1-0.2-0.1-0.3c0,0,0,0,0,0c0-0.1-0.1-0.2-0.1-0.2c0,0,0,0,0,0c-0.1-0.1-0.1-0.1-0.2-0.2c0,0,0,0,0,0
			c-0.1-0.1-0.1-0.1-0.2-0.2c0,0,0,0,0,0c-0.1-0.1-0.2-0.1-0.2-0.1c0,0,0,0-0.1,0c-0.1,0-0.2-0.1-0.3-0.1c0,0,0,0,0,0
			c-0.1,0-0.2,0-0.3-0.1c0,0,0,0,0,0V28c0,0,0,0,0,0c0.1,0,0.2,0,0.3-0.1c0,0,0,0,0,0c0.1,0,0.2-0.1,0.3-0.1c0,0,0,0,0.1,0
			c0.1,0,0.2-0.1,0.2-0.1c0,0,0,0,0,0c0.1-0.1,0.1-0.1,0.2-0.2l0,0c0.1-0.1,0.1-0.1,0.2-0.2c0,0,0,0,0,0c0.1-0.1,0.1-0.1,0.1-0.2
			c0,0,0,0,0,0c0-0.1,0.1-0.2,0.1-0.3c0,0,0,0,0,0c0-0.1,0-0.2,0.1-0.3c0,0,0,0,0,0h8.4c0,0,0,0,0,0c0,0.1,0,0.2,0.1,0.3l0,0
			c0,0.1,0.1,0.2,0.1,0.3c0,0,0,0,0,0c0,0.1,0.1,0.2,0.1,0.2c0,0,0,0,0,0c0.1,0.1,0.1,0.1,0.2,0.2l0,0c0.1,0.1,0.1,0.1,0.2,0.2
			c0,0,0,0,0,0c0.1,0.1,0.1,0.1,0.2,0.1c0,0,0,0,0,0c0.1,0,0.2,0.1,0.3,0.1l0,0c0.1,0,0.2,0.1,0.3,0.1c0,0,0,0,0,0v2.6c0,0,0,0,0,0
			C36.9,30.6,36.8,30.6,36.7,30.7z M26.4,26.3c0,0.1,0,0.1,0,0.2c0,0,0,0,0,0c0,0.1,0,0.1-0.1,0.2c0,0,0,0,0,0
			c0,0.1-0.1,0.1-0.1,0.2c0,0,0,0,0,0c0,0.1-0.1,0.1-0.1,0.1h0c0,0-0.1,0.1-0.1,0.1c0,0,0,0,0,0c-0.1,0-0.1,0.1-0.2,0.1c0,0,0,0,0,0
			c0,0-0.1,0.1-0.2,0.1c0,0,0,0,0,0c-0.1,0-0.1,0-0.2,0.1c0,0,0,0,0,0v-1.1c0,0,0,0,0,0L26.4,26.3C26.5,26.3,26.5,26.3,26.4,26.3z
			 M25.3,31.1C25.3,31.1,25.3,31.1,25.3,31.1c0.1,0,0.1,0,0.2,0c0,0,0,0,0,0c0.1,0,0.1,0,0.2,0.1c0,0,0,0,0,0c0.1,0,0.1,0.1,0.2,0.1
			c0,0,0,0,0,0c0,0,0.1,0.1,0.1,0.1h0c0,0,0.1,0.1,0.1,0.1c0,0,0,0,0,0c0,0.1,0.1,0.1,0.1,0.2l0,0c0,0.1,0.1,0.1,0.1,0.2
			c0,0,0,0,0,0c0,0.1,0,0.1,0,0.2l0,0h-1.1c0,0,0,0,0,0V31.1z M37,26.3v1.1c0,0,0,0,0,0c-0.1,0-0.1,0-0.2-0.1c0,0,0,0,0,0
			c-0.1,0-0.1,0-0.2-0.1c0,0,0,0,0,0c-0.1,0-0.1-0.1-0.2-0.1c0,0,0,0,0,0c0,0-0.1-0.1-0.1-0.1c0,0,0,0,0,0c0,0-0.1-0.1-0.1-0.1
			c0,0,0,0,0,0c0,0-0.1-0.1-0.1-0.2c0,0,0,0,0,0c0-0.1-0.1-0.1-0.1-0.2c0,0,0,0,0,0c0-0.1,0-0.1-0.1-0.2c0,0,0,0,0,0L37,26.3
			C37,26.3,37,26.3,37,26.3z M21,22.4c0-0.6,0.5-1,1-1h8.8c0.6,0,1,0.5,1,1v1.1H21V22.4z M31.9,36.4c0,0.6-0.5,1-1,1H22
			c-0.6,0-1-0.5-1-1v-1.1h10.9V36.4z M31.9,34.8H21V23.9h10.9v1.8h-5.2h-1.4c-0.3,0-0.5,0.2-0.5,0.5v1.4v3.1v1.4
			c0,0.3,0.2,0.5,0.5,0.5h1.4h5.2V34.8z M37,32.2h-1.1c0,0,0,0,0,0c0-0.1,0-0.1,0.1-0.2c0,0,0,0,0,0c0-0.1,0-0.1,0.1-0.2
			c0,0,0,0,0,0c0-0.1,0.1-0.1,0.1-0.2c0,0,0,0,0,0c0-0.1,0.1-0.1,0.1-0.1l0,0c0,0,0.1-0.1,0.1-0.1c0,0,0,0,0,0
			c0.1,0,0.1-0.1,0.2-0.1c0,0,0,0,0,0c0,0,0.1-0.1,0.2-0.1c0,0,0,0,0,0c0.1,0,0.1,0,0.2-0.1c0,0,0,0,0,0L37,32.2
			C37,32.2,37,32.2,37,32.2z"/>
	</g>
        <g>
		<path class="st2" d="M31.1,28c0.3,0,0.6,0.2,0.6,0.5c0,0.1,0.1,0.3,0.3,0.3c0.1,0,0.3-0.1,0.3-0.3c0-0.5-0.4-0.9-0.8-1v-0.2
			c0-0.1-0.1-0.3-0.3-0.3c-0.1,0-0.3,0.1-0.3,0.3v0.2c-0.5,0.1-0.8,0.5-0.8,1c0,0.5,0.3,1,1.1,1c0.4,0,0.6,0.2,0.6,0.5
			c0,0.3-0.3,0.5-0.6,0.5c-0.3,0-0.6-0.2-0.6-0.5c0-0.1-0.1-0.3-0.3-0.3c-0.1,0-0.3,0.1-0.3,0.3c0,0.5,0.4,0.9,0.8,1v0.2
			c0,0.1,0.1,0.3,0.3,0.3c0.1,0,0.3-0.1,0.3-0.3V31c0.5-0.1,0.8-0.5,0.8-1c0-0.5-0.3-1-1.1-1c-0.4,0-0.6-0.2-0.6-0.5
			C30.6,28.2,30.8,28,31.1,28z"/>
	</g>
        <g>
		<path class="st2" d="M34.5,28.4c-0.5,0-0.8,0.4-0.8,0.8c0,0.5,0.4,0.8,0.8,0.8c0.5,0,0.8-0.4,0.8-0.8
			C35.3,28.8,34.9,28.4,34.5,28.4z M34.5,29.6c-0.2,0-0.3-0.2-0.3-0.3c0-0.2,0.1-0.3,0.3-0.3c0.2,0,0.3,0.1,0.3,0.3
			C34.8,29.4,34.7,29.6,34.5,29.6z"/>
	</g>
        <g>
		<path class="st2" d="M27.8,28.4c-0.5,0-0.8,0.4-0.8,0.8c0,0.5,0.4,0.8,0.8,0.8c0.5,0,0.8-0.4,0.8-0.8
			C28.7,28.8,28.3,28.4,27.8,28.4z M27.8,29.6c-0.2,0-0.3-0.2-0.3-0.3c0-0.2,0.1-0.3,0.3-0.3c0.2,0,0.3,0.1,0.3,0.3
			C28.1,29.4,28,29.6,27.8,29.6z"/>
	</g>
        <g>
		<path class="st2" d="M23.9,29h-1.4l0.5-0.5c0.1-0.1,0.1-0.3,0-0.4c-0.1-0.1-0.3-0.1-0.4,0l-0.9,0.9c0,0,0,0.1-0.1,0.1
			c0,0,0,0.1,0,0.1c0,0,0,0.1,0,0.1c0,0,0,0.1,0.1,0.1l0.9,0.9c0.1,0,0.1,0.1,0.2,0.1s0.1,0,0.2-0.1c0.1-0.1,0.1-0.3,0-0.4l-0.5-0.5
			h1.4c0.1,0,0.3-0.1,0.3-0.3C24.2,29.1,24.1,29,23.9,29z"/>
	</g>
</g>
</svg>
