<?xml version="1.0" encoding="utf-8"?>
<!-- Generator: Adobe Illustrator 22.0.0, SVG Export Plug-In . SVG Version: 6.00 Build 0)  -->
<svg xmlns:xlink="http://www.w3.org/1999/xlink" version="1.1" id="Capa_1" xmlns="http://www.w3.org/2000/svg" x="0px"
     y="0px"
     viewBox="0 0 58 58.8" style="enable-background:new 0 0 58 58.8;" xml:space="preserve">
<style type="text/css">
	.st0{fill:none;}
	.st1{fill:none;stroke:#F39D9A;stroke-width:0.5;stroke-miterlimit:10;}
	.st2{fill:#F39D9A;stroke:#FFFFFF;stroke-width:0.1;stroke-miterlimit:10;}
</style>
    <path class="st0" d="M29.1,29.4c-0.1,0-0.1,0-0.1,0s-0.1,0-0.1,0C28.9,29.4,29.1,29.4,29.1,29.4z"/>
    <rect x="9.9" y="10.2" transform="matrix(0.7071 -0.7071 0.7071 0.7071 -12.2774 29.1098)" class="st1" width="38.3"
          height="38.3"/>
    <g>
	<path class="st2" d="M28.6,37c0,0-0.1,0-0.1,0l-3.5-1.7c-1.8-0.9-3-2.7-3-4.7V24c0-0.2,0.1-0.3,0.3-0.3c4.2-0.4,6.1-2.7,6.1-2.7
		c0.1-0.1,0.2-0.1,0.3-0.1c0.1,0,0.2,0,0.3,0.1c0,0,1.9,2.3,6.1,2.7c0.2,0,0.3,0.2,0.3,0.3v6.5c0,2-1.2,3.9-3,4.7L28.7,37
		C28.7,37,28.6,37,28.6,37z M22.6,24.3v6.2c0,1.8,1,3.4,2.6,4.2l3.4,1.6l3.4-1.6c1.6-0.8,2.6-2.4,2.6-4.2v-6.2c-3.4-0.4-5.3-2-6-2.7
		C27.9,22.3,26,23.9,22.6,24.3z"/>
        <path class="st2" d="M28.6,39.3c0,0-0.1,0-0.1,0l-4.5-2.2c-2.3-1.1-3.8-3.5-3.8-6.1v-8.5c0-0.2,0.1-0.3,0.3-0.3
		c5.5-0.6,7.9-3.5,8-3.6c0.1-0.1,0.2-0.1,0.3-0.1c0.1,0,0.2,0,0.3,0.1c0,0,2.5,3,8,3.6c0.2,0,0.3,0.2,0.3,0.3V31
		c0,2.6-1.5,5-3.8,6.1l-4.5,2.2C28.7,39.3,28.6,39.3,28.6,39.3z M20.7,22.9V31c0,2.3,1.4,4.5,3.5,5.5l4.4,2.1l4.4-2.1
		c2.1-1,3.5-3.1,3.5-5.5v-8.2c-4.6-0.6-7.1-2.7-7.8-3.5C27.8,20.1,25.3,22.3,20.7,22.9z"/>
        <path class="st2" d="M26.6,33.3c-0.2,0-0.3-0.1-0.3-0.3v-2.3c0-0.2,0.1-0.3,0.3-0.3s0.3,0.1,0.3,0.3V33
		C26.9,33.2,26.8,33.3,26.6,33.3z"/>
        <path class="st2" d="M30.5,33.3c-0.2,0-0.3-0.1-0.3-0.3v-2.3c0-0.2,0.1-0.3,0.3-0.3c0.2,0,0.3,0.1,0.3,0.3V33
		C30.9,33.2,30.7,33.3,30.5,33.3z"/>
        <path class="st2" d="M28.6,27.7c-1,0-1.9-0.8-1.9-1.9c0-1,0.8-1.9,1.9-1.9c1,0,1.9,0.8,1.9,1.9C30.5,26.8,29.6,27.7,28.6,27.7z
		 M28.6,24.6c-0.7,0-1.2,0.6-1.2,1.2c0,0.7,0.6,1.2,1.2,1.2c0.7,0,1.2-0.6,1.2-1.2C29.8,25.1,29.3,24.6,28.6,24.6z"/>
        <path class="st2" d="M32,33.3h-6.8c-0.2,0-0.3-0.1-0.3-0.3v-2.8c0-1.2,1-2.2,2.2-2.2h3.1c1.2,0,2.2,1,2.2,2.2V33
		C32.3,33.2,32.2,33.3,32,33.3z M25.5,32.7h6.2v-2.5c0-0.8-0.7-1.5-1.5-1.5H27c-0.8,0-1.5,0.7-1.5,1.5V32.7z"/>
</g>
</svg>
