<?xml version="1.0" encoding="utf-8"?>
<!-- Generator: Adobe Illustrator 22.0.0, SVG Export Plug-In . SVG Version: 6.00 Build 0)  -->
<svg xmlns:xlink="http://www.w3.org/1999/xlink" version="1.1" id="Capa_1" xmlns="http://www.w3.org/2000/svg" x="0px"
     y="0px"
     viewBox="0 0 58 58.8" style="enable-background:new 0 0 58 58.8;" xml:space="preserve">
<style type="text/css">
	.st0{fill:none;}
	.st1{fill:none;stroke:#F39D9A;stroke-width:0.5;stroke-miterlimit:10;}
	.st2{fill:#F39D9A;}
</style>
    <path class="st0" d="M29.1,29.4c-0.1,0-0.1,0-0.1,0s-0.1,0-0.1,0C28.9,29.4,29.1,29.4,29.1,29.4z"/>
    <path class="st0" d="M29.1,29.6c0-0.2-0.1-0.3-0.1-0.3l0-0.2c0,0,0,0-0.1-0.1v0.8C29,29.7,29,29.6,29.1,29.6z"/>
    <rect x="9.9" y="10.2" transform="matrix(0.7071 -0.7071 0.7071 0.7071 -12.2774 29.1098)" class="st1" width="38.3"
          height="38.3"/>
    <g>
	<g>
		<path class="st2" d="M33.6,21.6c1,0,1.9,0.8,1.9,1.9V27c0,0.1,0.1,0.3,0.3,0.3c0.1,0,0.3-0.1,0.3-0.3v-3.5c0-1.3-1.1-2.4-2.4-2.4
			H22.9c-1.3,0-2.4,1.1-2.4,2.4v10c0,0.1,0.1,0.3,0.3,0.3c0.1,0,0.3-0.1,0.3-0.3v-10c0-1,0.8-1.9,1.9-1.9H33.6z"/>
	</g>
        <g>
		<path class="st2" d="M37.5,32c0-0.5-0.2-0.9-0.5-1.1c0.2-0.3,0.4-0.7,0.4-1.2c0-0.8-0.6-1.5-1.4-1.5h-3.9c0.1-0.5,0.2-1.4,0.2-2.4
			c-0.1-1.7-1-2.8-2-2.9c-0.9,0-1.3,0.2-1.3,0.2c-0.1,0.1-0.1,0.2-0.1,0.3c0.1,0.6,0.4,2.1,0.2,2.6c-0.3,1-1.1,1.9-1.7,2.7
			c-0.7,0.8-1.2,1.5-1.2,2.1v5.4c0,0.1,0.1,0.3,0.3,0.3c0.1,0,0.3-0.1,0.3-0.3v-5.4c0-0.4,0.5-1,1.1-1.7c0.7-0.9,1.5-1.8,1.8-2.9
			c0.2-0.6,0-2.1-0.1-2.7c0.2,0,0.4-0.1,0.9-0.1c0.7,0,1.4,1,1.5,2.4c0.1,1.2-0.1,2.1-0.2,2.5c0,0.1,0,0.2,0,0.2
			c0,0.1,0.1,0.1,0.2,0.1H36c0.4,0,0.8,0.4,0.8,1c0,0.7-0.4,1-0.5,1c-0.1,0-0.3,0.1-0.3,0.3c0,0.1,0.1,0.3,0.3,0.3
			c0.3,0,0.6,0.3,0.6,0.8c0,0.4-0.2,0.7-0.5,0.9c-0.1,0-0.1,0.1-0.1,0.2c0,0.1,0,0.1,0.1,0.2c0.2,0.2,0.3,0.5,0.3,0.8
			c0,0.5-0.4,1-0.9,1.1c-0.1,0-0.1,0.1-0.2,0.1c0,0.1,0,0.2,0,0.2c0.1,0.2,0.1,0.4,0.1,0.5c0,0.6-0.4,1.1-1,1.1c0,0,0,0,0,0H34
			c-0.1,0-0.3,0.1-0.3,0.3c0,0.1,0.1,0.3,0.3,0.3h0.8c0,0,0.1,0,0.1,0c0.8-0.1,1.5-0.8,1.5-1.6c0-0.2,0-0.3-0.1-0.5
			c0.6-0.3,1-0.8,1-1.5c0-0.3-0.1-0.6-0.3-0.9C37.3,32.8,37.5,32.4,37.5,32z"/>
	</g>
        <g>
		<path class="st2" d="M24.3,30.2h-1.4c-0.4,0-0.8,0.4-0.8,0.8v5.2c0,0.1,0.1,0.3,0.3,0.3c0.1,0,0.3-0.1,0.3-0.3V31
			c0-0.1,0.1-0.3,0.3-0.3h1.4c0.2,0,0.3,0.1,0.3,0.3v5.9c0,0.2-0.1,0.3-0.3,0.3h-0.7c-0.1,0-0.3,0.1-0.3,0.3c0,0.1,0.1,0.3,0.3,0.3
			h0.7c0.4,0,0.8-0.4,0.8-0.8V31C25.1,30.6,24.7,30.2,24.3,30.2z"/>
	</g>
        <g>
		<path class="st2" d="M23.6,36.5c0.2,0,0.3-0.1,0.3-0.3c0-0.2-0.1-0.3-0.3-0.3c-0.2,0-0.3,0.1-0.3,0.3
			C23.2,36.4,23.4,36.5,23.6,36.5z"/>
	</g>
        <g>
		<path class="st2" d="M32.1,37.2H28c-0.1,0-0.3,0.1-0.3,0.3c0,0.1,0.1,0.3,0.3,0.3h4.1c0.1,0,0.3-0.1,0.3-0.3
			C32.3,37.3,32.2,37.2,32.1,37.2z"/>
	</g>
        <g>
		<path class="st2" d="M33.4,30.6c-0.1-0.1-0.3,0-0.4,0.1l-0.6,1.1c-0.4-0.3-1-0.6-1.5-0.6c-1.3,0-2.4,1.1-2.4,2.4
			c0,1.3,1.1,2.4,2.4,2.4c1.3,0,2.4-1.1,2.4-2.4c0-0.6-0.2-1.1-0.5-1.5l0.7-1.2C33.6,30.8,33.5,30.6,33.4,30.6z M32.8,33.6
			c0,1.1-0.9,1.9-1.9,1.9c-1.1,0-1.9-0.9-1.9-1.9c0-1.1,0.9-1.9,1.9-1.9c0.5,0,0.9,0.2,1.3,0.5L31.1,34l-0.8-1.4
			c-0.1-0.1-0.2-0.2-0.4-0.1c-0.1,0.1-0.2,0.2-0.1,0.4l1.1,1.7c0.1,0.1,0.1,0.1,0.2,0.1h0c0.1,0,0.2,0,0.2-0.1l1.2-2
			C32.7,32.9,32.8,33.3,32.8,33.6z"/>
	</g>
</g>
</svg>
