<?xml version="1.0" encoding="utf-8"?>
<!-- Generator: Adobe Illustrator 22.0.0, SVG Export Plug-In . SVG Version: 6.00 Build 0)  -->
<svg xmlns:xlink="http://www.w3.org/1999/xlink" version="1.1" id="Capa_1" xmlns="http://www.w3.org/2000/svg" x="0px"
     y="0px"
     viewBox="0 0 58 58.8" style="enable-background:new 0 0 58 58.8;" xml:space="preserve">
<style type="text/css">
	.st0{fill:none;}
	.st1{fill:none;stroke:#F39D9A;stroke-width:0.5;stroke-miterlimit:10;}
	.st2{fill:#F39D9A;}
</style>
    <path class="st0" d="M29.1,29.4c-0.1,0-0.1,0-0.1,0s-0.1,0-0.1,0C28.9,29.4,29.1,29.4,29.1,29.4z"/>
    <rect x="9.9" y="10.2" transform="matrix(0.7071 -0.7071 0.7071 0.7071 -12.2774 29.1098)" class="st1" width="38.3"
          height="38.3"/>
    <path class="st0" d="M30.5,31.8c0.1-0.4,0.1-0.7,0.2-1.1c-0.1,0-0.2-0.1-0.3-0.1c-0.5-0.1-0.9-0.3-1.3-0.7c-0.7-0.7-1.1-1.5-1.2-2.4
	c0-0.1,0-0.2,0-0.4C27.4,27.1,27,27,26.4,27c-0.1,0.4-0.2,0.7-0.2,1c-0.2,1-0.1,1.9,0.5,2.8c0.3,0.5,0.8,0.8,1.3,1
	C28.9,31.9,29.7,31.8,30.5,31.8z"/>
    <g>
	<g>
		<path class="st2" d="M35.4,19.9H22.6c-1.1,0-2.1,0.9-2.1,2.1v12.4c0,1.1,0.9,2.1,2.1,2.1h1.4v2c0,0.1,0.1,0.2,0.2,0.3
			c0,0,0.1,0,0.1,0c0.1,0,0.1,0,0.2-0.1l3.3-2.2h7.7c1.1,0,2.1-0.9,2.1-2.1V22C37.5,20.9,36.6,19.9,35.4,19.9z M36.9,34.4
			c0,0.8-0.7,1.5-1.5,1.5h-7.8c-0.1,0-0.1,0-0.2,0.1l-3,2v-1.8c0-0.2-0.1-0.3-0.3-0.3h-1.6c-0.8,0-1.5-0.7-1.5-1.5V22
			c0-0.8,0.7-1.5,1.5-1.5h12.8c0.8,0,1.5,0.7,1.5,1.5V34.4z"/>
	</g>
        <g>
		<path class="st2" d="M32.7,30l-2.5-2.5l2.8-2.8l0.2,0.2c0.1,0.1,0.1,0.1,0.2,0.1c0.1,0,0.1,0,0.2-0.1l1.5-1.1
			c0.1-0.1,0.1-0.1,0.1-0.2c0-0.1,0-0.2-0.1-0.2l-0.6-0.7l-0.7-0.7c-0.1-0.1-0.1-0.1-0.2-0.1c-0.1,0-0.2,0.1-0.2,0.1l-1.1,1.5
			c-0.1,0.1-0.1,0.3,0,0.4l0.2,0.2l-2.8,2.8l-2.5-2.5c0.1-0.8-0.1-1.6-0.7-2.2c-0.7-0.7-1.7-0.9-2.6-0.6c-0.1,0-0.2,0.1-0.2,0.2
			c0,0.1,0,0.2,0.1,0.3l1.5,1.5c-0.2,0.4-0.5,0.8-0.9,0.9L23,23.2c-0.1-0.1-0.2-0.1-0.3-0.1c-0.1,0-0.2,0.1-0.2,0.2
			c-0.3,0.9-0.1,1.9,0.6,2.6c0.6,0.6,1.4,0.8,2.2,0.7l2.5,2.5l-0.9,0.9l-0.5-0.5c-0.3-0.3-0.7-0.3-0.9,0l-2.5,2.5
			c-0.3,0.3-0.4,0.7-0.4,1.1c0,0.4,0.2,0.8,0.4,1.1l0.1,0.1c0.3,0.3,0.7,0.4,1.1,0.4c0.4,0,0.8-0.2,1.1-0.4l2.5-2.5
			c0.3-0.3,0.3-0.7,0-0.9l-0.5-0.5l0.9-0.9l2.5,2.5c-0.1,0.8,0.1,1.6,0.7,2.2c0.5,0.5,1.1,0.7,1.8,0.7c0.6,0,1.3-0.2,1.8-0.7
			c1-1,1-2.6,0-3.5C34.3,30.1,33.5,29.9,32.7,30z M33.7,22.8l0.8,0.8l-1.1,0.8l-0.5-0.5L33.7,22.8z M27.3,31.5L24.8,34
			c-0.4,0.4-1,0.4-1.3,0l0,0l-0.1-0.1c-0.2-0.2-0.3-0.4-0.3-0.7c0-0.3,0.1-0.5,0.3-0.7l2.5-2.5c0,0,0,0,0.1,0c0,0,0,0,0.1,0l1.3,1.3
			C27.4,31.4,27.4,31.4,27.3,31.5z M34.5,33.8c-0.7,0.7-2,0.7-2.7,0c-0.5-0.5-0.7-1.2-0.5-1.8c0-0.1,0-0.2-0.1-0.3l-5.6-5.6
			c-0.1-0.1-0.1-0.1-0.2-0.1c0,0,0,0-0.1,0c-0.7,0.2-1.3,0-1.8-0.5c-0.4-0.4-0.6-1-0.6-1.5l1.3,1.3c0.1,0.1,0.2,0.1,0.3,0.1
			c0.8-0.2,1.3-0.8,1.5-1.5c0-0.1,0-0.2-0.1-0.3l-1.3-1.3c0.6-0.1,1.1,0.1,1.5,0.6c0.5,0.5,0.7,1.2,0.5,1.8c0,0.1,0,0.2,0.1,0.3
			l5.6,5.6c0.1,0.1,0.2,0.1,0.3,0.1c0.7-0.2,1.3,0,1.8,0.5C35.3,31.9,35.3,33.1,34.5,33.8z"/>
	</g>
        <g>
		<path class="st2" d="M32.3,31.7c-0.2,0.2-0.3,0.5-0.3,0.8c0,0.3,0.1,0.6,0.3,0.8c0.2,0.2,0.5,0.3,0.8,0.3c0.3,0,0.6-0.1,0.8-0.3
			c0.2-0.2,0.3-0.5,0.3-0.8c0-0.3-0.1-0.6-0.3-0.8C33.5,31.2,32.8,31.2,32.3,31.7z M33.5,32.9c-0.2,0.2-0.6,0.2-0.8,0
			c-0.1-0.1-0.2-0.2-0.2-0.4s0.1-0.3,0.2-0.4s0.3-0.2,0.4-0.2c0.2,0,0.3,0.1,0.4,0.2c0.1,0.1,0.2,0.3,0.2,0.4S33.7,32.8,33.5,32.9z"
        />
	</g>
</g>
</svg>
