<?xml version="1.0" encoding="utf-8"?>
<!-- Generator: Adobe Illustrator 22.0.0, SVG Export Plug-In . SVG Version: 6.00 Build 0)  -->
<svg xmlns:xlink="http://www.w3.org/1999/xlink" version="1.1" id="Capa_1" xmlns="http://www.w3.org/2000/svg" x="0px"
     y="0px"
     viewBox="0 0 58 58.8" style="enable-background:new 0 0 58 58.8;" xml:space="preserve">
<style type="text/css">
	.st0{fill:none;}
	.st1{fill:none;stroke:#F39D9A;stroke-width:0.5;stroke-miterlimit:10;}
	.st2{fill:#F39D9A;}
</style>
    <path class="st0" d="M29.1,29.4c-0.1,0-0.1,0-0.1,0s-0.1,0-0.1,0C28.9,29.4,29.1,29.4,29.1,29.4z"/>
    <path class="st0" d="M29.1,29.6c0-0.2-0.1-0.3-0.1-0.3l0-0.2c0,0,0,0-0.1-0.1v0.8C29,29.7,29,29.6,29.1,29.6z"/>
    <rect x="9.9" y="10.2" transform="matrix(0.7071 -0.7071 0.7071 0.7071 -12.2774 29.1098)" class="st1" width="38.3"
          height="38.3"/>
    <g>
	<g>
		<path class="st2" d="M37.5,28.1C37.5,28,37.4,28,37.5,28.1L37.5,28.1l-1.3-1.2c0.8-0.6,1.4-1.6,1.4-2.7c0-1.8-1.5-3.3-3.3-3.3
			c-1.3,0-2.4,0.7-3,1.8l-2.1-1.8c-0.1-0.1-0.2-0.1-0.3,0l-2.9,2.5h-2.4c-0.1,0-0.3,0.1-0.3,0.3v2L20.6,28h0c0,0,0,0.1-0.1,0.1
			c0,0,0,0,0,0c0,0,0,0.1,0,0.1v9.4l0,0c0,0,0,0.1,0,0.1c0,0,0,0,0,0c0,0,0,0,0,0c0,0,0,0,0,0.1c0,0,0,0,0,0c0,0,0,0,0.1,0
			c0,0,0,0,0,0c0,0,0.1,0,0.1,0h16.5c0,0,0.1,0,0.1,0c0,0,0,0,0,0c0,0,0,0,0.1,0c0,0,0,0,0,0c0,0,0,0,0-0.1c0,0,0,0,0,0c0,0,0,0,0,0
			c0,0,0-0.1,0-0.1l0,0v-9.4C37.5,28.1,37.5,28.1,37.5,28.1C37.5,28.1,37.5,28.1,37.5,28.1z M37,28.7v8.3l-4.9-4.2L37,28.7z
			 M36.8,28.2L34.7,30v-2.6c0.4-0.1,0.7-0.2,1-0.3L36.8,28.2z M34.2,21.4c1.5,0,2.8,1.3,2.8,2.8c0,1.5-1.3,2.8-2.8,2.8
			c-1.5,0-2.8-1.3-2.8-2.8C31.4,22.7,32.6,21.4,34.2,21.4z M29,21.5l2,1.7c0,0.1,0,0.1-0.1,0.2h-4.2L29,21.5z M30.9,23.9
			c0,0.1,0,0.2,0,0.3c0,1.8,1.5,3.3,3.3,3.3v3l-2.4,2.1l-2.6-2.2c-0.1-0.1-0.2-0.1-0.3,0l-2.6,2.2l-2.4-2.1v-6.6H30.9z M25.9,32.9
			L21,37.1v-8.3L25.9,32.9z M23.3,30l-2.2-1.9l2.2-1.9V30z M21.5,37.4l7.5-6.4l7.5,6.4H21.5z"/>
	</g>
        <g>
		<path class="st2" d="M33.9,25.9c0,0.1,0.1,0.1,0.2,0.1c0,0,0,0,0,0c0.1,0,0.2-0.1,0.2-0.1l1.5-2.9c0.1-0.1,0-0.3-0.1-0.3
			c-0.1-0.1-0.3,0-0.3,0.1L34,25.3l-1-1.2c-0.1-0.1-0.3-0.1-0.4,0c-0.1,0.1-0.1,0.3,0,0.4L33.9,25.9z"/>
	</g>
        <g>
		<path class="st2" d="M25.4,27.8h5.7c0.1,0,0.3-0.1,0.3-0.3c0-0.1-0.1-0.3-0.3-0.3h-5.7c-0.1,0-0.3,0.1-0.3,0.3
			C25.1,27.6,25.3,27.8,25.4,27.8z"/>
	</g>
        <g>
		<path class="st2" d="M25.4,26.1h4.4c0.1,0,0.3-0.1,0.3-0.3c0-0.1-0.1-0.3-0.3-0.3h-4.4c-0.1,0-0.3,0.1-0.3,0.3
			C25.1,26,25.3,26.1,25.4,26.1z"/>
	</g>
        <g>
		<path class="st2" d="M25.4,29.4h7.2c0.1,0,0.3-0.1,0.3-0.3c0-0.1-0.1-0.3-0.3-0.3h-7.2c-0.1,0-0.3,0.1-0.3,0.3
			C25.1,29.3,25.3,29.4,25.4,29.4z"/>
	</g>
</g>
</svg>
