<?xml version="1.0" encoding="utf-8"?>
<!-- Generator: Adobe Illustrator 22.0.0, SVG Export Plug-In . SVG Version: 6.00 Build 0)  -->
<svg xmlns:xlink="http://www.w3.org/1999/xlink" version="1.1" id="Capa_1" xmlns="http://www.w3.org/2000/svg" x="0px"
     y="0px"
     viewBox="0 0 58 58.8" style="enable-background:new 0 0 58 58.8;" xml:space="preserve">
<style type="text/css">
	.st0{fill:none;}
	.st1{fill:none;stroke:#F39D9A;stroke-width:0.5;stroke-miterlimit:10;}
	.st2{fill:#F39D9A;}
</style>
    <path class="st0" d="M29.1,29.4c-0.1,0-0.1,0-0.1,0s-0.1,0-0.1,0C28.9,29.4,29.1,29.4,29.1,29.4z"/>
    <path class="st0" d="M29.1,29.6c0-0.2-0.1-0.3-0.1-0.3l0-0.2c0,0,0,0-0.1-0.1v0.8C29,29.7,29,29.6,29.1,29.6z"/>
    <rect x="9.9" y="10.2" transform="matrix(0.7071 -0.7071 0.7071 0.7071 -12.2774 29.1098)" class="st1" width="38.3"
          height="38.3"/>
    <g>
	<g>
		<path class="st2" d="M36.1,27.8h-4.5c0.7-1.2,1.2-2.6,1.2-3.7c0-2.1-1.7-3.8-3.8-3.8s-3.8,1.7-3.8,3.8c0,1.1,0.5,2.5,1.2,3.7h-4.5
			c-0.8,0-1.4,0.6-1.4,1.4v7.9c0,0.8,0.6,1.4,1.4,1.4h14.3c0.8,0,1.4-0.6,1.4-1.4v-7.9C37.5,28.4,36.9,27.8,36.1,27.8z M29,20.9
			c1.8,0,3.2,1.4,3.2,3.2c0,2.3-2.5,5.7-3.2,6.7c-0.7-1-3.2-4.4-3.2-6.7C25.8,22.3,27.2,20.9,29,20.9z M29,32.5l-3-1.4l2-0.9
			c0.4,0.6,0.8,1,0.8,1.1c0,0.1,0.1,0.1,0.2,0.1c0.1,0,0.2,0,0.2-0.1c0-0.1,0.4-0.5,0.8-1.1l2,0.9L29,32.5z M32.4,31.6v3.3l-3.2,1.4
			V33L32.4,31.6z M28.7,33v3.3l-3.2-1.4v-3.3l2,0.9L28.7,33z M22.9,37.9h-1c-0.5,0-0.8-0.4-0.8-0.8v-7.9c0-0.4,0.4-0.8,0.8-0.8h1
			V37.9z M34.6,37.9H23.4v-9.5h3.3c0.3,0.5,0.6,1,0.9,1.5l-2.5,1.1c0,0,0,0,0,0c0,0,0,0,0,0c0,0,0,0,0,0c0,0,0,0,0,0c0,0,0,0,0,0
			c0,0,0,0,0,0c0,0,0,0,0,0c0,0,0,0,0,0c0,0,0,0,0,0.1v3.9c0,0.1,0.1,0.2,0.2,0.3l3.7,1.7c0,0,0,0,0,0c0,0,0.1,0,0.1,0l0,0l0,0l0,0
			l0,0c0,0,0.1,0,0.1,0c0,0,0,0,0,0l3.7-1.7c0.1,0,0.2-0.1,0.2-0.3v-3.9c0,0,0,0,0-0.1l0,0c0,0,0,0,0-0.1c0,0,0,0,0,0c0,0,0,0,0,0
			c0,0,0,0,0,0c0,0,0,0,0,0c0,0,0,0,0,0c0,0,0,0,0,0l-2.5-1.1c0.3-0.4,0.6-0.9,0.9-1.5h3.3V37.9z M36.9,37.1c0,0.5-0.4,0.8-0.8,0.8
			h-1v-9.5h1c0.5,0,0.8,0.4,0.8,0.8V37.1z"/>
	</g>
        <g>
		<path class="st2" d="M21.7,32.2v1.9c0,0.1,0.1,0.3,0.3,0.3c0.2,0,0.3-0.1,0.3-0.3v-1.9c0-0.2-0.1-0.3-0.3-0.3
			C21.8,31.9,21.7,32,21.7,32.2z"/>
	</g>
        <g>
		<path class="st2" d="M35.8,34.9c0,0-0.1,0.1-0.1,0.2c0,0.1,0,0.1,0.1,0.2c0.1,0.1,0.1,0.1,0.2,0.1c0.1,0,0.1,0,0.2-0.1
			c0.1,0,0.1-0.1,0.1-0.2c0-0.1,0-0.1-0.1-0.2C36.1,34.7,35.9,34.7,35.8,34.9z"/>
	</g>
        <g>
		<path class="st2"
              d="M36,32.8c-0.2,0-0.3,0.1-0.3,0.3c0,0.1,0.1,0.3,0.3,0.3c0.2,0,0.3-0.1,0.3-0.3C36.3,33,36.2,32.8,36,32.8z"/>
	</g>
        <g>
		<path class="st2" d="M35.8,31c0,0-0.1,0.1-0.1,0.2s0,0.1,0.1,0.2c0,0,0.1,0.1,0.2,0.1c0.1,0,0.1,0,0.2-0.1c0,0,0.1-0.1,0.1-0.2
			s0-0.1-0.1-0.2C36.1,30.9,35.9,30.9,35.8,31z"/>
	</g>
        <g>
		<path class="st2" d="M30.9,24.1c0-1-0.8-1.9-1.9-1.9c-1,0-1.9,0.8-1.9,1.9c0,1,0.8,1.9,1.9,1.9C30,26,30.9,25.2,30.9,24.1z
			 M27.7,24.1c0-0.7,0.6-1.3,1.3-1.3s1.3,0.6,1.3,1.3c0,0.7-0.6,1.3-1.3,1.3S27.7,24.9,27.7,24.1z"/>
	</g>
</g>
</svg>
