<?xml version="1.0" encoding="utf-8"?>
<!-- Generator: Adobe Illustrator 22.0.0, SVG Export Plug-In . SVG Version: 6.00 Build 0)  -->
<svg xmlns:xlink="http://www.w3.org/1999/xlink" version="1.1" id="Capa_1" xmlns="http://www.w3.org/2000/svg" x="0px"
     y="0px"
     viewBox="0 0 58 58.8" style="enable-background:new 0 0 58 58.8;" xml:space="preserve">
<style type="text/css">
	.st0{fill:none;}
	.st1{fill:none;stroke:#F39D9A;stroke-width:0.5;stroke-miterlimit:10;}
	.st2{fill:#F39D9A;stroke:#FFFFFF;stroke-width:0.1;stroke-miterlimit:10;}
</style>
    <path class="st0" d="M29.1,29.4c-0.1,0-0.1,0-0.1,0s-0.1,0-0.1,0C28.9,29.4,29.1,29.4,29.1,29.4z"/>
    <rect x="9.9" y="10.2" transform="matrix(0.7071 -0.7071 0.7071 0.7071 -12.2774 29.1098)" class="st1" width="38.3"
          height="38.3"/>
    <g>
	<path class="st2" d="M19.8,28.4c-0.9,0-1.7-0.7-1.7-1.7v-0.8c0-0.2,0.1-0.3,0.3-0.3h1.3c0.2,0,0.3,0.1,0.3,0.3
		c0,0.2-0.1,0.3-0.3,0.3h-1v0.5c0,0.6,0.5,1,1,1c0.6,0,1-0.5,1-1v-4.2c0-1,0.8-1.9,1.9-1.9c0.2,0,0.3,0.1,0.3,0.3
		c0,0.2-0.1,0.3-0.3,0.3c-0.7,0-1.2,0.6-1.2,1.2v4.2C21.5,27.6,20.8,28.4,19.8,28.4z"/>
        <path class="st2" d="M24.3,28.4h-4.4c-0.2,0-0.3-0.1-0.3-0.3c0-0.2,0.1-0.3,0.3-0.3h4.4c0.2,0,0.3,0.1,0.3,0.3
		C24.6,28.2,24.5,28.4,24.3,28.4z"/>
        <path class="st2" d="M35.2,37.6H24.3c-0.2,0-0.3-0.1-0.3-0.3V22.5c0-0.7-0.5-1.2-1.2-1.2c-0.2,0-0.3-0.1-0.3-0.3
		c0-0.2,0.1-0.3,0.3-0.3h10.9c1,0,1.9,0.8,1.9,1.9v1.8c0,0.2-0.1,0.3-0.3,0.3c-0.2,0-0.3-0.1-0.3-0.3v-1.8c0-0.7-0.5-1.2-1.2-1.2
		h-9.5c0.3,0.3,0.5,0.8,0.5,1.2V37h10.3v-3.1c0-0.2,0.1-0.3,0.3-0.3c0.2,0,0.3,0.1,0.3,0.3v3.4C35.5,37.5,35.4,37.6,35.2,37.6z"/>
        <path class="st2" d="M27,34.2c-0.2,0-0.3,0-0.3-0.1c-0.4-0.3-0.3-0.9-0.2-1.1c0-0.2,0.2-1.1,0.8-1.1c0.2,0,0.5,0.1,0.7,0.3
		c0.1,0.1,0.2,0.3,0.2,0.4c0,0.2-0.1,0.3-0.3,0.3c-0.2,0-0.3-0.1-0.3-0.3c0,0-0.1-0.1-0.2-0.1c-0.1,0.1-0.2,0.3-0.2,0.5
		c-0.1,0.3,0,0.4,0,0.5c0.1,0,0.2,0,0.5-0.1c0.5-0.2,0.7-0.2,0.9-0.4c0.2-0.2,0.3-0.4,0.4-0.6c0.1-0.2,0.2-0.5,0.5-0.5
		c0.4,0,0.6,0.5,0.7,1.3c0,0.2-0.1,0.3-0.3,0.4c-0.2,0-0.3-0.1-0.4-0.3c0-0.2-0.1-0.3-0.1-0.4c-0.1,0.2-0.2,0.4-0.5,0.6
		c-0.2,0.2-0.5,0.3-1.1,0.5C27.4,34.2,27.2,34.2,27,34.2z"/>
        <path class="st2" d="M29.7,35.6h-3c-0.2,0-0.3-0.1-0.3-0.3c0-0.2,0.1-0.3,0.3-0.3h3c0.2,0,0.3,0.1,0.3,0.3
		C30,35.5,29.9,35.6,29.7,35.6z"/>
        <path class="st2" d="M33,35c-0.1,0-0.3,0-0.4-0.1C32,34.7,31.8,34,32,33.5l3.3-7.9c0-0.1,0.1-0.1,0.2-0.2c0.1,0,0.2,0,0.2,0
		l1.4,0.6c0.2,0.1,0.2,0.3,0.2,0.4L34,34.3C33.8,34.7,33.4,35,33,35z M35.7,26.1l-3.1,7.6c-0.1,0.2,0,0.5,0.2,0.6
		c0.2,0.1,0.5,0,0.6-0.2l3.1-7.6L35.7,26.1z"/>
        <path class="st2" d="M32.4,35.6c0,0-0.1,0-0.1,0c-0.2-0.1-0.2-0.3-0.2-0.4l0.3-0.7c0.1-0.2,0.3-0.2,0.4-0.2
		c0.2,0.1,0.2,0.3,0.2,0.4l-0.3,0.7C32.6,35.5,32.5,35.6,32.4,35.6z"/>
        <path class="st2" d="M36.7,26.5c0,0-0.1,0-0.1,0l-0.9-0.4c-0.2-0.1-0.2-0.3-0.2-0.4l0.4-1c0.1-0.2,0.2-0.4,0.4-0.4
		c0.2-0.1,0.4-0.1,0.6,0c0.4,0.2,0.6,0.6,0.4,1.1l-0.4,1c0,0.1-0.1,0.1-0.2,0.2C36.8,26.5,36.7,26.5,36.7,26.5z M36.2,25.6l0.3,0.1
		l0.3-0.7c0-0.1,0-0.2-0.1-0.2c0,0-0.1,0-0.1,0c0,0-0.1,0-0.1,0.1L36.2,25.6z"/>
        <path class="st2" d="M36.4,30.8c0,0-0.1,0-0.1,0c-0.2-0.1-0.2-0.3-0.2-0.4l0.7-1.8c0.1-0.2,0.1-0.4,0-0.6c-0.1-0.2-0.2-0.4-0.4-0.4
		c-0.2-0.1-0.2-0.3-0.2-0.4c0.1-0.2,0.3-0.2,0.4-0.2c0.4,0.1,0.6,0.4,0.8,0.8c0.2,0.4,0.2,0.8,0,1.1l-0.7,1.8
		C36.7,30.7,36.5,30.8,36.4,30.8z"/>
        <path class="st2" d="M33.9,33.8c0,0-0.1,0-0.1,0l-1.4-0.6c-0.2-0.1-0.2-0.3-0.2-0.4c0.1-0.2,0.3-0.2,0.4-0.2l1.4,0.6
		c0.2,0.1,0.2,0.3,0.2,0.4C34.2,33.7,34.1,33.8,33.9,33.8z"/>
        <path class="st2" d="M31.5,23.3h-3.1c-0.2,0-0.3-0.1-0.3-0.3c0-0.2,0.1-0.3,0.3-0.3h3.1c0.2,0,0.3,0.1,0.3,0.3
		C31.8,23.2,31.7,23.3,31.5,23.3z"/>
        <path class="st2" d="M33.6,25.1h-7.4c-0.2,0-0.3-0.1-0.3-0.3c0-0.2,0.1-0.3,0.3-0.3h7.4c0.2,0,0.3,0.1,0.3,0.3
		C33.9,25,33.8,25.1,33.6,25.1z"/>
        <path class="st2"
              d="M33.6,26.9h-7.4c-0.2,0-0.3-0.1-0.3-0.3s0.1-0.3,0.3-0.3h7.4c0.2,0,0.3,0.1,0.3,0.3S33.8,26.9,33.6,26.9z"/>
        <path class="st2" d="M33.1,28.7h-6.9c-0.2,0-0.3-0.1-0.3-0.3c0-0.2,0.1-0.3,0.3-0.3h6.9c0.2,0,0.3,0.1,0.3,0.3
		C33.4,28.5,33.3,28.7,33.1,28.7z"/>
        <path class="st2" d="M32.1,30.5h-5.8c-0.2,0-0.3-0.1-0.3-0.3c0-0.2,0.1-0.3,0.3-0.3h5.8c0.2,0,0.3,0.1,0.3,0.3
		C32.4,30.3,32.2,30.5,32.1,30.5z"/>
</g>
</svg>
