<?xml version="1.0" encoding="utf-8"?>
<!-- Generator: Adobe Illustrator 22.0.0, SVG Export Plug-In . SVG Version: 6.00 Build 0)  -->
<svg xmlns:xlink="http://www.w3.org/1999/xlink" version="1.1" id="Capa_1" xmlns="http://www.w3.org/2000/svg" x="0px"
     y="0px"
     viewBox="0 0 58 58.8" style="enable-background:new 0 0 58 58.8;" xml:space="preserve">
<style type="text/css">
	.st0{fill:none;}
	.st1{fill:none;stroke:#F39D9A;stroke-width:0.5;stroke-miterlimit:10;}
	.st2{fill:#F39D9A;stroke:#FFFFFF;stroke-width:7.846772e-02;stroke-miterlimit:10;}
</style>
    <path class="st0" d="M29.1,29.4c-0.1,0-0.1,0-0.1,0s-0.1,0-0.1,0C28.9,29.4,29.1,29.4,29.1,29.4z"/>
    <path class="st0" d="M29.1,29.6c0-0.2-0.1-0.3-0.1-0.3l0-0.2c0,0,0,0-0.1-0.1v0.8C29,29.7,29,29.6,29.1,29.6z"/>
    <rect x="9.9" y="10.2" transform="matrix(0.7071 -0.7071 0.7071 0.7071 -12.2774 29.1098)" class="st1" width="38.3"
          height="38.3"/>
    <g>
	<path class="st2" d="M25.4,25.5c-0.4-0.2-0.9-0.3-1.5-0.3c-1.9,0-3.5,1.6-3.5,3.5c0,1.9,1.6,3.5,3.5,3.5c0.7,0,1.4-0.2,1.9-0.6
		c0.1,0.1,0.3,0.1,0.5,0.1c0.2,0,0.3,0,0.4-0.1v4.5v1.5c0,0.1,0.1,0.3,0.3,0.3H29h1.9c0.1,0,0.3-0.1,0.3-0.3v-1.5v-4.5
		c0.1,0.1,0.3,0.1,0.4,0.1c0.6,0,1.2-0.5,1.2-1.2c0-0.1,0-0.3-0.1-0.4l0.5-0.6l0.6,0.8c0.1,0.1,0.1,0.1,0.2,0.1c0,0,0,0,0,0
		c0.1,0,0.2,0,0.2-0.1l0.7-0.8l0.7,0.8c0,0.1,0.1,0.1,0.2,0.1c0.1,0,0.1,0,0.2-0.1l1.4-1.4c0.1-0.1,0.1-0.2,0.1-0.3l-0.4-1.4
		c0-0.1-0.1-0.2-0.3-0.2h-4.2v-0.8c0-1.5-1.1-2.2-2.2-2.2h-0.4c0.3-0.3,0.5-0.8,0.5-1.3c0-1-0.7-1.8-1.6-1.8c-0.9,0-1.6,0.8-1.6,1.8
		c0,0.5,0.2,1,0.5,1.3h-0.4C26.5,24,25.7,24.6,25.4,25.5z M27.9,22.7c0-0.7,0.5-1.3,1.1-1.3c0.6,0,1.1,0.6,1.1,1.3
		c0,0.7-0.5,1.3-1.1,1.3C28.4,24,27.9,23.4,27.9,22.7z M35.8,29.7l-0.7-0.8c-0.1-0.1-0.1-0.1-0.2-0.1c-0.1,0-0.2,0-0.2,0.1L34,29.6
		l-0.6-0.8c-0.1-0.1-0.1-0.1-0.2-0.1c-0.1,0-0.2,0-0.2,0.1l-0.3,0.4l-0.3,0.4l0,0c-0.1-0.1-0.2-0.1-0.3-0.2
		c-0.2-0.1-0.3-0.1-0.5-0.1c-0.2,0-0.3,0-0.4,0.1c0,0,0,0,0,0c-0.1,0-0.2,0.1-0.3,0.2c-0.1,0-0.1,0.1-0.1,0.1c0,0-0.1,0.1-0.1,0.1h0
		l-0.6,0l-0.1,0l-0.4-0.3l-0.4-0.3L29,29.1c-0.1-0.1-0.2-0.1-0.3,0l-0.1,0.1l-0.4,0.3l-0.4,0.3l-0.1,0h-0.4h0c0,0-0.1-0.1-0.1-0.1
		c0,0-0.1-0.1-0.1-0.1c-0.1-0.1-0.2-0.1-0.3-0.2c0,0,0,0,0,0c-0.1-0.1-0.3-0.1-0.4-0.1c-0.2,0-0.4,0.1-0.5,0.1
		c-0.1,0.1-0.2,0.1-0.3,0.2c-0.1,0.1-0.2,0.2-0.3,0.4c-0.1,0.1-0.1,0.3-0.1,0.5c0,0.3,0.1,0.5,0.2,0.7c-0.4,0.3-1,0.4-1.5,0.4
		c-1.6,0-2.9-1.3-2.9-3c0-1.6,1.3-3,2.9-3c0.5,0,0.9,0.1,1.4,0.3c0.1,0,0.2,0.1,0.3,0.2c0.1,0.1,0.2,0.1,0.3,0.2
		c0.3,0.3,0.6,0.6,0.8,1c0,0.1,0.1,0.1,0.2,0.1c0,0,0,0,0,0h0.5h3.2h0.5h1h0.3h0.3h4l0.3,1.1L35.8,29.7z M32.2,30.5
		c0,0.3-0.3,0.6-0.6,0.6c-0.2,0-0.3-0.1-0.4-0.2C31,30.8,31,30.6,31,30.5c0-0.1,0-0.1,0-0.1c0,0,0,0,0,0c0-0.1,0.1-0.2,0.1-0.3
		c0,0,0,0,0,0c0,0,0,0,0,0c0.1-0.1,0.3-0.2,0.4-0.2c0.2,0,0.3,0.1,0.5,0.2c0,0,0,0,0,0c0.1,0.1,0.1,0.2,0.1,0.3c0,0,0,0,0,0
		C32.2,30.4,32.2,30.4,32.2,30.5z M30.6,37.3h-1.4v-1h1.4V37.3z M26.4,31.1c-0.1,0-0.2,0-0.3-0.1c-0.1,0-0.2-0.1-0.2-0.2
		c-0.1-0.1-0.1-0.2-0.1-0.4c0-0.1,0-0.1,0-0.1c0-0.1,0.1-0.2,0.1-0.3c0.1-0.1,0.3-0.2,0.5-0.2c0.1,0,0.2,0,0.3,0.1
		c0.1,0,0.1,0.1,0.2,0.1c0,0,0,0,0,0c0,0,0,0,0,0c0.1,0.1,0.1,0.2,0.1,0.3c0,0,0,0,0,0c0,0,0,0.1,0,0.1c0,0.2-0.1,0.3-0.2,0.4
		C26.7,31,26.6,31.1,26.4,31.1C26.4,31.1,26.4,31.1,26.4,31.1z M27.4,31.1c0.1-0.2,0.2-0.4,0.2-0.6c0,0,0-0.1,0-0.1h0.4
		c0.1,0,0.1,0,0.2-0.1l0.7-0.5H29l0.8,0.5c0,0,0.1,0,0.2,0h0l0.5,0c0,0,0,0.1,0,0.1c0,0.2,0.1,0.4,0.2,0.6v4.7h-1.4v-4.2
		c0-0.1-0.1-0.3-0.3-0.3c-0.1,0-0.3,0.1-0.3,0.3v4.2h-1.4V31.1z M27.4,36.3h1.4v1h-1.4V36.3z M32.1,26.9h-1v-0.4
		c0-0.1-0.1-0.3-0.3-0.3c-0.1,0-0.3,0.1-0.3,0.3v0.4h-3.2v-0.4c0-0.1-0.1-0.3-0.3-0.3s-0.3,0.1-0.3,0.3v0.1
		c-0.3-0.4-0.6-0.7-0.9-0.9c0.2-0.7,0.8-1.2,1.5-1.2H29h1.5c0.6,0,1.6,0.3,1.6,1.7V26.9z"/>
        <path class="st2" d="M22.9,27.6c-0.5,0-1,0.4-1,1c0,0.5,0.4,1,1,1c0.5,0,1-0.4,1-1C23.9,28.1,23.4,27.6,22.9,27.6z M22.9,29.1
		c-0.2,0-0.4-0.2-0.4-0.4c0-0.2,0.2-0.4,0.4-0.4c0.2,0,0.4,0.2,0.4,0.4C23.4,28.9,23.2,29.1,22.9,29.1z"/>
</g>
</svg>
