<svg id="Capa_1" data-name="Capa 1" xmlns="http://www.w3.org/2000/svg" viewBox="0 0 600 600"><path d="M412.47,44c-38.92,0-88,18.7-112.47,58.14C275.56,62.69,226.42,44,187.53,44,120.29,44,44,92.35,44,203.6,44,387.28,253.36,531.71,292.58,554a15,15,0,0,0,14.84,0C345.53,532.34,556,388.26,556,203.6,556,95.16,482.49,44,412.47,44ZM300,523.25C259.62,496.94,74,367.06,74,203.6,74,98.88,148.49,74,187.53,74,226.84,74,285,99.87,285,155.4a15,15,0,0,0,30,0C315,99.87,373.16,74,412.47,74,451.52,74,526,98.88,526,203.6,526,367.06,340.38,496.94,300,523.25Z"/></svg>