<svg xmlns="http://www.w3.org/2000/svg" viewBox="0 0 45 45"><path d="M45,40.76a1.32,1.32,0,0,0-1.47-1.14l-1.24.16V34.11a1.32,1.32,0,0,0-1.56-1.3l-.19,0V28.66a1.32,1.32,0,0,0-1.59-1.28L28.55,29.56a9.3,9.3,0,0,0-5.25,3.21,9.71,9.71,0,0,0-.74,1.07,9.71,9.71,0,0,0-.74-1.07,9.3,9.3,0,0,0-5.25-3.21L6.18,27.38a1.32,1.32,0,0,0-1.59,1.28v4.19l-.19,0a1.32,1.32,0,0,0-1.56,1.3v5.67L1.6,39.62a1.32,1.32,0,0,0-.33,2.61L22.4,44.87h.32l21.13-2.64A1.32,1.32,0,0,0,45,40.76ZM7.22,30.28,16,32.14a6.58,6.58,0,0,1,5,4.68,7.51,7.51,0,0,0-3.19-1.45l-10.6-2ZM5.47,40.1V35.69L17.33,38a4.83,4.83,0,0,1,3.87,4.12Zm23.62-8,8.81-1.86v3.07l-10.6,2a7.51,7.51,0,0,0-3.19,1.45,6.58,6.58,0,0,1,5-4.68Zm10.56,8-15.74,2A4.85,4.85,0,0,1,27.79,38l11.86-2.26Z"/><path d="M16.15,17.85a3.28,3.28,0,0,1,1.26,2.5v3.76a3.07,3.07,0,0,0,3.07,3.06h4.16a3.07,3.07,0,0,0,3.07-3.06V20.35A3.28,3.28,0,0,1,29,17.85a10.08,10.08,0,1,0-12.82,0Zm8.93,6.26a.44.44,0,0,1-.44.43H20.48a.44.44,0,0,1-.44-.43v-2.2h5ZM22.56,2.63A7.44,7.44,0,0,1,27.3,15.82a6,6,0,0,0-2.12,3.46H23.87v-6.9l2.25-2.25a1.32,1.32,0,1,0-1.86-1.86L22.56,10l-1.7-1.7A1.32,1.32,0,1,0,19,10.13l2.24,2.25v6.9h-1.3a6.08,6.08,0,0,0-2.12-3.46A7.44,7.44,0,0,1,22.56,2.63Z"/><path d="M36.58,8.77a1.32,1.32,0,0,0,0,2.63h2.63a1.32,1.32,0,1,0,0-2.63Z"/><path d="M36.37,5.52l2.27-1.31a1.31,1.31,0,0,0-1.31-2.28L35.05,3.24a1.32,1.32,0,1,0,1.32,2.28Z"/><path d="M35.05,16.92l2.28,1.31A1.31,1.31,0,0,0,38.64,16l-2.27-1.31a1.32,1.32,0,0,0-1.32,2.28Z"/><path d="M5.91,11.4H8.53a1.32,1.32,0,1,0,0-2.63H5.91a1.32,1.32,0,1,0,0,2.63Z"/><path d="M6.48,4.21,8.75,5.52a1.32,1.32,0,1,0,1.32-2.28L7.79,1.93A1.31,1.31,0,0,0,6.48,4.21Z"/><path d="M8.75,14.64,6.48,16a1.31,1.31,0,0,0,1.31,2.28l2.28-1.31a1.32,1.32,0,1,0-1.32-2.28Z"/></svg>