<svg xmlns="http://www.w3.org/2000/svg" viewBox="0 0 45 45"><path d="M42.58,24.06V19.84a1.34,1.34,0,0,0-1.33-1.34,39.8,39.8,0,0,0-7.75.71,12,12,0,0,0-5-2.9,9.33,9.33,0,1,0-12,0,12,12,0,0,0-5,2.9,39.8,39.8,0,0,0-7.75-.71,1.34,1.34,0,0,0-1.33,1.33v4.23A4,4,0,0,0-.25,27.83V30.5a4,4,0,0,0,2.67,3.77v4.22a1.34,1.34,0,0,0,1.33,1.34,31.05,31.05,0,0,1,18,5.19,1.33,1.33,0,0,0,1.48,0,31.05,31.05,0,0,1,18-5.19,1.34,1.34,0,0,0,1.33-1.34V34.27a4,4,0,0,0,2.67-3.77V27.83A4,4,0,0,0,42.58,24.06ZM15.84,9.17a6.66,6.66,0,1,1,6.66,6.67A6.72,6.72,0,0,1,15.84,9.17ZM3.75,31.83A1.34,1.34,0,0,1,2.42,30.5V27.83a1.34,1.34,0,0,1,2.67,0V30.5A1.34,1.34,0,0,1,3.75,31.83Zm17.42,9.69A33.35,33.35,0,0,0,5.09,37.18V34.27A4,4,0,0,0,7.75,30.5V27.83a4,4,0,0,0-2.66-3.77V21.19a30.11,30.11,0,0,1,16.08,4.7ZM22.5,23.58A32.17,32.17,0,0,0,14.75,20a9.39,9.39,0,0,1,5.08-1.51h5.34A9.39,9.39,0,0,1,30.25,20,32.17,32.17,0,0,0,22.5,23.58Zm17.41,13.6a33.46,33.46,0,0,0-16.08,4.34V25.89a30.11,30.11,0,0,1,16.08-4.7v2.87a4,4,0,0,0-2.66,3.77V30.5a4,4,0,0,0,2.66,3.77Zm2.67-6.68a1.34,1.34,0,0,1-2.67,0V27.83a1.34,1.34,0,0,1,2.67,0Z"/></svg>