<svg xmlns="http://www.w3.org/2000/svg" viewBox="0 0 45 45"><path d="M34.07,40.78a.88.88,0,0,0-1.2-.32l0,0a.87.87,0,0,0-.32,1.2.86.86,0,0,0,.76.44.88.88,0,0,0,.44-.12l0,0A.87.87,0,0,0,34.07,40.78Z"/><path d="M42,11.26A22.49,22.49,0,0,0,11.26,3a22.5,22.5,0,0,0,3.82,40.72,22.48,22.48,0,0,0,15.47-.23.88.88,0,1,0-.63-1.64,20.61,20.61,0,0,1-19.83-2.72L10.88,35l.38-.13A2.74,2.74,0,0,0,13,31.47l-.28-.86a.88.88,0,0,1,0-.6,2.74,2.74,0,0,0-2.08-3.54l-2-.39L4.85,23.17a.88.88,0,0,0-.8-.13l-2.24.72a19.06,19.06,0,0,1,0-2.39l.18.17a1,1,0,0,0,.16.2.91.91,0,0,0,.7.24,11.85,11.85,0,0,0,1.57-.18l1.49-.23a.9.9,0,0,0,.66-.52.87.87,0,0,0-.08-.84L5.41,18.62,7,17.52a.87.87,0,0,0,.26-.28L9.6,13.07l1-1a3.69,3.69,0,0,0,.72-3.93,4.06,4.06,0,0,0-1.6-1.89,21.17,21.17,0,0,1,2.46-1.66A20.57,20.57,0,0,1,22.26,1.77l-1.57,2-5.82,2a.94.94,0,0,0-.52.5l-1.62,3.94a.87.87,0,0,0,.09.84l2.38,3.33a8.62,8.62,0,0,0-1.07,1.32,6.09,6.09,0,0,1-.45.61l-.29.33a8.58,8.58,0,0,0-1.42,2,5.26,5.26,0,0,0,.44,5.3,4.94,4.94,0,0,0,4.66,2,7.7,7.7,0,0,0,.86-.18c.75-.18,1-.2,1.23,0s.13.13.12.5a3.59,3.59,0,0,0,.08.87,2.7,2.7,0,0,0,.75,1.21,2.08,2.08,0,0,1,.31.41,2.17,2.17,0,0,1-.1,1.82c0,.07-.05.14-.07.21a4.89,4.89,0,0,0,.65,3.52c.15.35.3.68.4,1,.79,2.34,1.38,2.88,1.86,3.09a1.76,1.76,0,0,0,.77.17,4.89,4.89,0,0,0,3.19-1.93,2.69,2.69,0,0,0,.55-1.28,1.32,1.32,0,0,1,.11-.39,2.34,2.34,0,0,1,.29-.37,3,3,0,0,0,.72-1.19,1.93,1.93,0,0,1,.59-.94l.2-.21A2.81,2.81,0,0,0,30.13,29c-.27-.87.2-1.43,1.33-2.48A9.12,9.12,0,0,0,32.86,25a1.88,1.88,0,0,0,.37-1.76c-.32-.73-1.12-.86-1.77-1a2.91,2.91,0,0,1-.77-.18,4.11,4.11,0,0,1-1.2-1.81l-.19-.42c-.11-.25-.23-.54-.35-.85a7.26,7.26,0,0,0-1.3-2.42,5.57,5.57,0,0,0-2.52-1.12l-.8-.24a.85.85,0,0,0-.5,0,2.19,2.19,0,0,0-.94.39,1.07,1.07,0,0,0-.31.42c-.32-.16-.76-.45-1-.63h0a1.31,1.31,0,0,0-.08-.85c-.49-1-2.12-1-2.44-.93s-.42,0-.66,0c-.39,0-.81,0-1.23.08l0-.06a2.25,2.25,0,0,1,2.11-1.49h.5a.88.88,0,1,0,0-1.75h-.5a4,4,0,0,0-3.4,1.89l-1.31-1.83,1.29-3.13,5.68-2a.88.88,0,0,0,.4-.28l2.53-3.18a20.72,20.72,0,0,1,16,10.28,20.08,20.08,0,0,1,2.07,5l-.37.33a2.31,2.31,0,0,0-.78,1.71v0l-.61-1.67a2.19,2.19,0,0,0-.39-.68l-1.09-1.27a2.2,2.2,0,0,0-1.67-.77H36.29a1.27,1.27,0,0,0-1.06,2l.14.2a9.73,9.73,0,0,1-2.91,1.72l-1.81-3.48v-.77a.91.91,0,0,0-.27-.64l-1.64-1.56a1,1,0,0,0-.32-.2L27,11.58a.88.88,0,0,0-.58,1.66l1.29.45,1.23,1.17v.62a.79.79,0,0,0,.1.4l2.27,4.36a.89.89,0,0,0,1.09.42l.66-.25a11.48,11.48,0,0,0,4.12-2.63.87.87,0,0,0,.11-1.11l0-.07h.42a.45.45,0,0,1,.34.15L39,18a.64.64,0,0,1,.08.14l1.19,3.28A.88.88,0,0,0,41,22a.62.62,0,0,0,.19,0,.89.89,0,0,0,.62-.25l.57-.57a2.78,2.78,0,0,0,.73-1.32A20.81,20.81,0,0,1,35.33,38.8a.88.88,0,1,0,1.09,1.38A22.47,22.47,0,0,0,42,11.26ZM4.16,24.85l3.62,2.76a1,1,0,0,0,.36.16l2.19.43a1,1,0,0,1,.74,1.26,2.67,2.67,0,0,0,0,1.7l.27.85a1,1,0,0,1-.62,1.23l-.88.29a.88.88,0,0,0-.59.67l-.7,3.67a20.91,20.91,0,0,1-4-5A20.47,20.47,0,0,1,2,25.55Zm5.12-14-1,1.11-.12.16L5.78,16.2,3.69,17.69a.89.89,0,0,0-.22,1.21l.78,1.15-1.12.15L3,20.05,2,19.22A20.75,20.75,0,0,1,8.23,7.46a2.26,2.26,0,0,1,1.42,1.3A1.94,1.94,0,0,1,9.28,10.83Zm7.16,4.81a5.63,5.63,0,0,1,2-.28l.74,0h.38a.81.81,0,0,0-.05.46.88.88,0,0,0,.45.64c.17.09.39.24.64.4a4.91,4.91,0,0,0,2.19,1,1.45,1.45,0,0,0,1.2-.49.08.08,0,0,1,0,0,.85.85,0,0,0,.23-.29l.44.12a6,6,0,0,1,1.7.63,6.28,6.28,0,0,1,.94,1.85c.13.34.26.66.4,1l.18.4a5.38,5.38,0,0,0,1.84,2.56,3.55,3.55,0,0,0,1.46.45l.19,0a8.54,8.54,0,0,1-1.11,1.17c-1.09,1-2.45,2.27-1.82,4.29.29.95.31,1.05-.17,1.56l-.18.2a3.68,3.68,0,0,0-1,1.61,1.38,1.38,0,0,1-.36.55,4.7,4.7,0,0,0-.49.66,3,3,0,0,0-.32.93,1,1,0,0,1-.18.51,5,5,0,0,1-1.11,1,1.48,1.48,0,0,1-.74.29A6.36,6.36,0,0,1,23,34.71c-.13-.37-.3-.76-.47-1.13a3.74,3.74,0,0,1-.58-2.26c0-.07,0-.14.07-.2a3.89,3.89,0,0,0,.06-3.05,3.35,3.35,0,0,0-.64-.91,1.73,1.73,0,0,1-.34-.44,2.08,2.08,0,0,1,0-.45,2.16,2.16,0,0,0-.68-1.8A2.82,2.82,0,0,0,17.5,24a4.54,4.54,0,0,1-.64.13,3.13,3.13,0,0,1-3-1.28,3.47,3.47,0,0,1-.28-3.51,6.7,6.7,0,0,1,1.14-1.55l.31-.35c.17-.2.36-.46.56-.75A6.41,6.41,0,0,1,16.44,15.64Z"/><path d="M36,30.26l-.43-1.59a.86.86,0,0,0-.74-.65.88.88,0,0,0-.88.45c-.09.18-.18.37-.26.55a4.78,4.78,0,0,1-.44.8,2.31,2.31,0,0,1-.52.3,2.41,2.41,0,0,0-1.46,1.42,2.45,2.45,0,0,0-.06,1.24.79.79,0,0,1,0,.52v0a3,3,0,0,0-.07,2.92,1.83,1.83,0,0,0,1.49.93,1,1,0,0,0,.24,0c.89-.14,1.57-1.08,2.12-2.93l1-3.49A.84.84,0,0,0,36,30.26Zm-2.73,3.46a5.39,5.39,0,0,1-.67,1.58.18.18,0,0,1,0-.07c-.17-.24.08-.83.24-1.22v0A2.47,2.47,0,0,0,33,32.53a.9.9,0,0,1,0-.46c0-.11.24-.22.55-.37a4.6,4.6,0,0,0,.45-.22Z"/><path d="M23.73,10.45l-.06,0a.87.87,0,1,0-.58,1.65l.06,0a1,1,0,0,0,.29,0,.87.87,0,0,0,.29-1.7Z"/></svg>