<svg xmlns="http://www.w3.org/2000/svg" viewBox="0 0 45 45"><path d="M1.81,22.5A20.69,20.69,0,0,0,19,42.89a1.32,1.32,0,1,0,.44-2.6A18.06,18.06,0,0,1,16.55,5.45l-.47.84a1.31,1.31,0,0,0,2.29,1.29c2.27-4,2-3.46,2-3.56h0a1.31,1.31,0,0,0-.49-1.73L16.43.19a1.31,1.31,0,0,0-1.81.45,1.31,1.31,0,0,0,.45,1.81l.77.46a20.7,20.7,0,0,0-14,19.59Z"/><path d="M43.19,22.5A20.69,20.69,0,0,0,26,2.11a1.32,1.32,0,1,0-.44,2.6,18.06,18.06,0,0,1,2.88,34.84l.47-.84a1.31,1.31,0,0,0-2.29-1.29l-2,3.52A1.32,1.32,0,0,0,25,42.67l3.54,2.14a1.32,1.32,0,0,0,1.36-2.26l-.77-.46a20.71,20.71,0,0,0,14-19.59Z"/><path d="M22.5,36.82a1.32,1.32,0,0,0,1.32-1.32V32.86c1.81-1.41,7.29-6.15,7.29-12,0-6.87-7.54-12.2-7.86-12.43a1.31,1.31,0,0,0-1.5,0c-.28.19-5.81,4.11-7.42,9.53h0a10,10,0,0,0-.44,2.9c0,5.87,5.48,10.61,7.29,12V35.5a1.32,1.32,0,0,0,1.32,1.32Zm1.32-7.45V22L28,18.13a7.85,7.85,0,0,1,.51,2.71C28.47,24.33,25.79,27.5,23.82,29.37Zm2.89-13.68-2.89,2.72v-6.1A19.69,19.69,0,0,1,26.71,15.69Zm-5.53-3.37v9.39L17.13,17.9A16.5,16.5,0,0,1,21.18,12.32ZM16.53,21l4.65,4.37v4c-1.95-1.85-4.59-5-4.65-8.41Z"/></svg>