<svg xmlns="http://www.w3.org/2000/svg" viewBox="0 0 45 45"><path d="M22.6,42.86a2.63,2.63,0,0,1-1.73-.66c-1.81-1.58-3.56-3.06-5.09-4.38h0C11.25,34,7.36,30.65,4.65,27.38,1.61,23.72.2,20.25.2,16.46A14,14,0,0,1,3.76,6.9a12.06,12.06,0,0,1,9-3.9,11.31,11.31,0,0,1,7,2.43,14.37,14.37,0,0,1,2.84,3,14.15,14.15,0,0,1,2.85-3,11.27,11.27,0,0,1,7-2.43,12.06,12.06,0,0,1,9,3.9A14,14,0,0,1,45,16.46c0,3.79-1.41,7.26-4.44,10.92C37.85,30.65,34,34,29.44,37.82c-1.55,1.31-3.29,2.8-5.11,4.39A2.67,2.67,0,0,1,22.6,42.86ZM12.72,5.62a9.44,9.44,0,0,0-7,3.06,11.35,11.35,0,0,0-2.86,7.78c0,3.19,1.18,6,3.84,9.24s6.38,6.35,10.8,10.12h0c1.54,1.31,3.29,2.81,5.12,4.4,1.83-1.6,3.59-3.09,5.13-4.41,4.42-3.77,8.24-7,10.81-10.12s3.84-6.05,3.84-9.24a11.4,11.4,0,0,0-2.86-7.78,9.47,9.47,0,0,0-7-3.06,8.71,8.71,0,0,0-5.44,1.89A12.63,12.63,0,0,0,24,11a1.65,1.65,0,0,1-2.84,0,12.63,12.63,0,0,0-3-3.5A8.69,8.69,0,0,0,12.72,5.62Z"/></svg>