<svg xmlns="http://www.w3.org/2000/svg" viewBox="0 0 45 45"><path d="M33.71,12.69H31.6a10.48,10.48,0,0,0-9.17,5.39,10.48,10.48,0,0,0-9.17-5.39H11.15A1.32,1.32,0,0,0,9.83,14v2.11A10.49,10.49,0,0,0,20.31,26.61h.8V31.7a1.32,1.32,0,0,0,2.64,0V26.61h.79A10.49,10.49,0,0,0,35,16.12V14a1.32,1.32,0,0,0-1.32-1.32ZM21.11,24h-.8a7.85,7.85,0,0,1-7.85-7.85v-.8h.8a7.85,7.85,0,0,1,7.85,7.85Zm11.28-7.85A7.84,7.84,0,0,1,24.54,24h-.79v-.8a7.85,7.85,0,0,1,7.85-7.85h.79v.8Z"/><path d="M32.3,0c-3.42,0-7.73,1.64-9.87,5.1C20.28,1.64,16,0,12.56,0,6.66,0,0,4.24,0,14c0,16.12,18.38,28.8,21.82,30.76a1.34,1.34,0,0,0,.65.17,1.37,1.37,0,0,0,.65-.17C26.43,42.86,44.9,30.22,44.9,14c0-9.52-6.45-14-12.6-14ZM22.43,42.06C18.88,39.75,2.59,28.36,2.59,14c0-9.19,6.54-11.38,10-11.38s8.55,2.27,8.55,7.15a1.32,1.32,0,0,0,2.64,0c0-4.88,5.1-7.15,8.55-7.15s10,2.19,10,11.38C42.27,28.36,26,39.75,22.43,42.06Z"/></svg>