<svg id="Capa_1" data-name="Capa 1" xmlns="http://www.w3.org/2000/svg" viewBox="0 0 600 600"><path d="M559.37,128.93c18.29-23.54,15.71-59.89-5.91-80.61a62.24,62.24,0,0,0-80.91-5.76c-29-58-116.73-38.65-117.65,27.09v84.7a107.9,107.9,0,0,0-45.19,3.12,82,82,0,0,1-3.92-27.4c2-67.86-54.5-124.9-122.68-124.06C117.39,5.31,60.07,64.17,63,129.87A79.45,79.45,0,0,1,50,176.1C.31,248,22.65,353.36,96.74,399.31A1067,1067,0,0,0,7.41,570.21a17.23,17.23,0,0,0,22.52,22.48l2.21-.91A1075.48,1075.48,0,0,0,293.05,437.35l114.59-91.9c29.5-23.42,44.87-62.07,39.36-99.27h85.14c65.9-.91,85.36-88.23,27.23-117.25ZM57.67,265.7a125,125,0,0,1,21-70.5,113.74,113.74,0,0,0,18.8-66.15c-1.23-47.93,37.84-88.15,86-88.59,48.85-.62,89.31,40.2,87.87,88.73a116.23,116.23,0,0,0,7,43,108.17,108.17,0,0,0-23.13,21.31L241.87,210c-51.2-50.43-139.68-13.73-139.54,58.39A82,82,0,0,0,140,337.13q-12.37,16.53-24.1,33.51A125.73,125.73,0,0,1,57.67,265.7ZM164.6,305.48c-1.14,1.41-2.27,2.83-3.4,4.24a47.46,47.46,0,0,1-24.42-41.34c0-43.38,54.56-63.73,83.25-31.41Zm248.93-40.27a73.51,73.51,0,0,1-22,48.51l-40.07-39.89c-16.84-15.48-39.85,7.66-24.3,24.41l37.59,37.43-93.27,74.8A1039.92,1039.92,0,0,1,56.73,543.39,1033.93,1033.93,0,0,1,179.05,342.73l24.46,24.35a17.23,17.23,0,0,0,24.31-24.41l-27.13-27L282,215.16a74.27,74.27,0,0,1,110-5.87,73.46,73.46,0,0,1,21.53,55.92Zm118.61-53.49H436a107.86,107.86,0,0,0-46.61-46.42V69.65c1.51-36.24,53.52-36.22,55,0v7.23a17.23,17.23,0,0,0,29.38,12.2l16.42-16.34a27.69,27.69,0,0,1,39,0c10.63,10.16,10.64,28.41,0,38.57l-16.42,16.35a17.22,17.22,0,0,0,12.15,29.43h7.26c36.51,1.51,36.49,53.14,0,54.63Z"/></svg>