<svg id="Capa_1" data-name="Capa 1" xmlns="http://www.w3.org/2000/svg" viewBox="0 0 600 600"><path d="M437.81,6H162.19a51.76,51.76,0,0,0-51.68,51.68V125a687,687,0,0,0-34.46,215.1V576.77A17.21,17.21,0,0,0,93.28,594H506.72A17.21,17.21,0,0,0,524,576.77V340.08A688,688,0,0,0,489.49,125V57.68A51.76,51.76,0,0,0,437.81,6ZM455,57.68v52.83H351.68V40.45h86.13A17.21,17.21,0,0,1,455,57.68ZM282.77,40.45h34.46V155.07L300,172.29l-17.23-17.22ZM145,57.68a17.21,17.21,0,0,1,17.23-17.23h86.13v70.06H145ZM140.25,145H248.32v17.23a17.22,17.22,0,0,0,5.05,12.17l34.46,34.45a17.17,17.17,0,0,0,24.34,0l34.46-34.45a17.22,17.22,0,0,0,5.05-12.17V145H459.75a652.71,652.71,0,0,1,29.74,195.12V489.49h-379V340.08A652.71,652.71,0,0,1,140.25,145ZM110.51,559.55V524h379v35.6Z"/></svg>