<svg id="Capa_1" data-name="Capa 1" xmlns="http://www.w3.org/2000/svg" viewBox="0 0 600 600"><path d="M576.77,225a17.23,17.23,0,1,0,0-34.45H537.63A145.31,145.31,0,0,0,526.76,150l33.91-19.58a17.22,17.22,0,1,0-17.22-29.83l-34,19.6a147.55,147.55,0,0,0-29.66-29.66l19.6-33.94A17.22,17.22,0,1,0,469.6,39.34L450,73.24a145.33,145.33,0,0,0-40.53-10.87V23.23a17.23,17.23,0,0,0-34.46,0V62.37A145.33,145.33,0,0,0,334.5,73.24l-19.58-33.9a17.23,17.23,0,1,0-29.84,17.22l19.6,34A147.5,147.5,0,0,0,275,120.17l-34-19.61a17.23,17.23,0,0,0-17.22,29.84L257.76,150a145.45,145.45,0,0,0-11.89,57.76A38.07,38.07,0,0,1,244,219.62l-24.06-24.06a17.23,17.23,0,0,0-24.36,24.36L219.62,244a38.12,38.12,0,0,1-11.88,1.89A145.63,145.63,0,0,0,150,257.76L130.4,223.85a17.22,17.22,0,0,0-29.83,17.23L120.17,275a147.76,147.76,0,0,0-29.66,29.65l-34-19.6a17.23,17.23,0,0,0-17.22,29.84L73.24,334.5A145.33,145.33,0,0,0,62.37,375H23.23a17.23,17.23,0,1,0,0,34.45H62.37A145.31,145.31,0,0,0,73.24,450L39.33,469.6a17.22,17.22,0,1,0,17.22,29.83l34-19.6a147.55,147.55,0,0,0,29.66,29.66l-19.6,34a17.22,17.22,0,1,0,29.83,17.23L150,526.76a145.33,145.33,0,0,0,40.53,10.87v39.14a17.23,17.23,0,1,0,34.46,0V538.19a328.47,328.47,0,0,0,51.66-6.79l10,37.26a17.23,17.23,0,0,0,33.28-8.92l-10-37.27q12.36-4,24.46-9t23.68-10.93l19.29,33.41a17.23,17.23,0,0,0,29.84-17.22l-19.29-33.4a329.35,329.35,0,0,0,41.34-31.73l27.27,27.28a17.23,17.23,0,0,0,24.37-24.36l-27.28-27.28a328.4,328.4,0,0,0,31.73-41.34l33.4,19.28A17.22,17.22,0,1,0,536,377.34l-33.41-19.29q5.9-11.58,10.92-23.67t9-24.47l37.26,10a17.23,17.23,0,0,0,8.92-33.28l-37.26-10A327.58,327.58,0,0,0,538.19,225Zm-95.14,96.22a296.43,296.43,0,0,1-273.89,183,111.94,111.94,0,0,1,0-223.87,72.55,72.55,0,0,0,72.58-72.58,111.94,111.94,0,0,1,223.87,0,295.05,295.05,0,0,1-22.56,113.45Z"/><path d="M392.26,135.16a72.54,72.54,0,0,0-72.58,72.58A112.07,112.07,0,0,1,207.74,319.68a72.58,72.58,0,0,0,0,145.16,257.11,257.11,0,0,0,257.1-257.1,72.55,72.55,0,0,0-72.58-72.58ZM207.74,430.39a38.13,38.13,0,0,1,0-76.26c80.72,0,146.39-65.67,146.39-146.39a38.13,38.13,0,0,1,76.26,0c0,122.77-99.88,222.65-222.65,222.65Z"/></svg>