<svg id="Capa_1" data-name="Capa 1" xmlns="http://www.w3.org/2000/svg" viewBox="0 0 600 600"><defs><style>.cls-1{stroke:#000;stroke-miterlimit:10;stroke-width:7px;}</style></defs><path d="M298,30.22c78.42-.71,157.78,39.1,209.1,99.23l-70.95-2.29a15.11,15.11,0,0,0-1,30.21l98.15,3.27c11.92,5.26,25.08-7.77,19.7-19.71l-3.26-98.14a15.12,15.12,0,1,0-30.22,1.09l1.81,56.56C336.3-105.18,1.36,29.82-2.11,300.13a15.11,15.11,0,1,0,30.21,0C26.94,161.13,154.35,25.34,298,30.22Z"/><path d="M586.76,285a15.11,15.11,0,0,0-15.1,15.11c-4.21,249.3-315.82,366.19-479,170.55L163.6,473a15.12,15.12,0,0,0,1-30.22l-98.14-3.27c-11.92-5.26-25.08,7.77-19.7,19.71L50,557.33a15.12,15.12,0,1,0,30.22-1.09l-1.82-56.56c114.07,129.19,329.94,134.81,443.11,2.17,50.53-56.08,80.63-131.5,80.63-202A15.46,15.46,0,0,0,586.76,285Z"/><path class="cls-1" d="M424.8,258.06c65.07-63.55,50.1-38.28-56.69-76.63-15.29-56.24-100.46-59.52-120.39-4.84-1.28,1.77-115.29,32.45-110.59,37.71-4.29,4.47,38.75,41.41,40.37,44.72-27.57,52.21-44.69,42.89,14.5,61.89,1.92,3.34-4.63,106.68,4.11,104.31,21.64,8.1,102,38.2,102.38,38.44a6,6,0,0,0,4.11,0l115.07-38.32c9.28,3.09,2.32-104.07,4.35-107C488.4,299.27,466.74,304.93,424.8,258.06ZM371,200.52c0-1.57-.12-3.26-.24-4.83l75.06,23.21-31.91,31.91L361.83,233.4A64.23,64.23,0,0,0,371,200.52ZM258.72,183.84c30.35-73.72,134.51-15.79,88.12,48.84C311.4,276.7,240.16,237.21,258.72,183.84ZM155.38,218.78l88.35-27.56a62.87,62.87,0,0,0,6.41,38.55l-62.85,20.91Zm12.81,80.62,20.19-33.73L291,299.88,270.81,333.6C259.93,330,179.92,303.26,168.19,299.4ZM294.26,448.31l-89.45-33.6V325c94.87,28.24,60.48,34.51,89.45-5.68Zm6.4-158.7-94.88-31.55,51.61-17.17c23,29.75,71.42,31.35,96.34,3.27l41.7,13.9ZM409.33,414.46,307.07,448.55V314.63l22.6,28.28c.39,8.53,76.15-21.44,79.66-20.79v92.34Zm-72.4-82.91-25.51-32L414,265.31,446,297.22Z"/><path class="cls-1" d="M343.57,176.83a6.34,6.34,0,0,0-9.06,0l-33.85,33.85-8.21-8.22c-5.77-6-15.1,3.29-9.07,9.06,4.8,3.27,14.86,20.31,21.88,12.82l38.31-38.44A6.57,6.57,0,0,0,343.57,176.83Z"/></svg>