<svg id="Capa_1" data-name="Capa 1" xmlns="http://www.w3.org/2000/svg" viewBox="0 0 600 600"><defs><style>.cls-1{stroke:#000;stroke-miterlimit:10;stroke-width:5px;}</style></defs><path class="cls-1" d="M184.35,284A6.59,6.59,0,1,0,173,277.23a85.26,85.26,0,0,0-11.69,43.25v.72a96.73,96.73,0,0,0,3.38,25.66,6.79,6.79,0,0,0,6.38,4.94,8.29,8.29,0,0,0,1.69-.24,6.63,6.63,0,0,0,4.69-8.07,86.71,86.71,0,0,1-2.89-22.29v-.72A72.67,72.67,0,0,1,184.35,284Z"/><path class="cls-1" d="M186.4,364.57h0a6.55,6.55,0,0,0-9-2.29,6.65,6.65,0,0,0-2.28,9v.12a6.44,6.44,0,0,0,5.66,3.13,6.82,6.82,0,0,0,3.37-1A6.63,6.63,0,0,0,186.4,364.57Z"/><path class="cls-1" d="M457.45,335.9l-19-41.8a52.38,52.38,0,0,1,2.29-47.83,6.66,6.66,0,0,0-2.41-9l-14.82-8.56a6.78,6.78,0,0,0-5.06-.6,6.5,6.5,0,0,0-4,3.13,52.3,52.3,0,0,1-40.23,25.9l-45.78,4.46a89.36,89.36,0,0,0-68.55,44.09l-.36.72a102.42,102.42,0,0,0-.48,101.2v.12a103,103,0,0,0,8.55,12.77H240.73A100.26,100.26,0,0,1,190,406.61h-.12a100.39,100.39,0,0,1-49.15-86v-.84a85.67,85.67,0,0,1,35.78-69.51l41.68-29.76a72.43,72.43,0,0,0,30.24-58.79v-17h8.43v17a72.45,72.45,0,0,0,30.24,58.79l37.59,26.87a6.57,6.57,0,0,0,7.59-10.73L294.7,209.77A59,59,0,0,1,270,161.7V138.09a6.68,6.68,0,0,0-6.62-6.62H241.69a6.68,6.68,0,0,0-6.62,6.62V161.7a59.36,59.36,0,0,1-24.7,48.07l-41.68,29.76a98.59,98.59,0,0,0-41.32,80.23v.84a112.69,112.69,0,0,0,14.94,56A114.46,114.46,0,0,0,183,417.94h.12A111.08,111.08,0,0,0,231,433.12v12.52a6.63,6.63,0,1,0,13.25,0v-12h7.95v29a6.63,6.63,0,1,0,13.26,0v-29h7.95v12a6.63,6.63,0,1,0,13.25,0V439a112.64,112.64,0,0,0,10.12,6.75l16.86,9.75a102.44,102.44,0,0,0,51,13.62h1a102.49,102.49,0,0,0,87.34-51l.36-.72A88.76,88.76,0,0,0,457.45,335.9ZM442,410.83l-.36.72a88.69,88.69,0,0,1-121.31,32.53l-16.87-9.76a88.85,88.85,0,0,1-32.88-33.25V401a89.22,89.22,0,0,1,.36-88.18l.36-.72a75.94,75.94,0,0,1,58.43-37.59L375.53,270a65.62,65.62,0,0,0,46.86-26.86l4,2.29a65.39,65.39,0,0,0,.12,54l19,41.8A76.77,76.77,0,0,1,442,410.83Z"/><path class="cls-1" d="M433.48,346.86h0a6.56,6.56,0,0,0-8.8-3.25,6.65,6.65,0,0,0-3.25,8.79v.12a6.6,6.6,0,0,0,6,3.86,7.72,7.72,0,0,0,2.78-.6A7,7,0,0,0,433.48,346.86Z"/><path class="cls-1" d="M432.88,372.52a6.52,6.52,0,0,0-7.23,5.78,49.11,49.11,0,0,1-6.27,19.28l-.36.72a62.65,62.65,0,0,1-53.49,31.2h-.6a63,63,0,0,1-31.2-8.31l-16.86-9.76a61.51,61.51,0,0,1-23.13-23.37h0a62.66,62.66,0,0,1,.24-61.92l.36-.72a49.49,49.49,0,0,1,38.07-24.58l45.77-4.45a85.39,85.39,0,0,0,18.31-3.74,83.15,83.15,0,0,0,6,17.71l6.26,13.73a6.63,6.63,0,1,0,12.05-5.54l-6.27-13.73a81.37,81.37,0,0,1-6.38-22.05,6.31,6.31,0,0,0-3.25-4.82,6.56,6.56,0,0,0-5.79-.36A78.62,78.62,0,0,1,377,283.13l-45.78,4.46a62.68,62.68,0,0,0-48.31,31.08l-.36.73a75.82,75.82,0,0,0-.36,75.05h0a75.45,75.45,0,0,0,28.07,28.31l16.87,9.75a75.63,75.63,0,0,0,37.82,10.12h.72a75.94,75.94,0,0,0,64.82-37.82l.36-.73a62.45,62.45,0,0,0,7.95-24.45A6.67,6.67,0,0,0,432.88,372.52Z"/><path class="cls-1" d="M409.38,357.82l-19-41.8c-.36-1-.84-1.8-1.2-2.77a6.56,6.56,0,0,0-6.87-4l-3,.36-45.78,4.45a36.32,36.32,0,0,0-27.95,18l-.36.73a49.31,49.31,0,0,0-.24,48.79h0v.12a49.49,49.49,0,0,0,18.19,18.43L340,409.87a49.29,49.29,0,0,0,24.69,6.62h.48a49.48,49.48,0,0,0,42.17-24.57l.36-.73A36.73,36.73,0,0,0,409.38,357.82Zm-13,26.63-.36.72a36.36,36.36,0,0,1-30.84,18.07h-.36a36.92,36.92,0,0,1-18.07-4.82l-16.86-9.76a36,36,0,0,1-13.38-13.49v-.12h0a35.91,35.91,0,0,1,.24-35.66l.37-.72a23,23,0,0,1,17.83-11.44L379.15,323l18.43,40.48A23.44,23.44,0,0,1,396.37,384.45Z"/><path d="M298.07,31.12c47.35,0,94.69,13.37,137,38.79A297.43,297.43,0,0,1,506.48,130l-70.71-2.29a15.07,15.07,0,0,0-1,30.12l97.82,3.25A15.28,15.28,0,0,0,549,157.85a15,15,0,0,0,3.25-16.39L549,43.65a15.06,15.06,0,1,0-30.12.72v.36l1.81,56.38a323.51,323.51,0,0,0-70.24-57C403.48,15.94,350.72,1,298,1c-84.33,0-162,34.69-218.77,97.82C28.83,154.72-1.17,229.89-1.17,300.12a15.06,15.06,0,0,0,30.12,0c0-62.88,27.1-130.59,72.64-181.06C152.67,62.32,222.42,31.12,298.07,31.12Z"/><path d="M585.87,285.06a15.07,15.07,0,0,0-15.06,15.06c0,62.88-27.1,130.59-72.64,181.06C447.21,537.8,377.46,569,301.81,569c-47.35,0-94.69-13.37-137-38.79A297.43,297.43,0,0,1,93.4,470.1l70.71,2.29a15.07,15.07,0,0,0,1-30.12L67.26,439a15.28,15.28,0,0,0-16.39,3.25,15,15,0,0,0-3.25,16.39l3.25,97.81A15.06,15.06,0,0,0,81,555.75v-.36L79.18,499a323,323,0,0,0,70.36,56.86c47,28.19,99.74,43.13,152.51,43.13,84.33,0,162-34.69,218.77-97.82,50.35-55.9,80.35-131.07,80.35-201.3A15.39,15.39,0,0,0,585.87,285.06Z"/><path d="M372.52,337.83a6.44,6.44,0,0,0-3.61-2.05c-5.18-1-31.57-5.3-41.44,7.47-4.34,5.66-6,11.44-4.82,17.35,1.68,8.19,8.67,15.54,21.92,22.88,9.52,5.3,17.23,7.95,23.86,7.95a20.73,20.73,0,0,0,7.22-1.2c5.55-2.05,9.76-6.51,12.29-13.13C393.6,362,376.14,341.68,372.52,337.83Zm3,34.57c-1.68,4.46-3.73,5.18-4.45,5.42-2.65,1-8.32.72-20.12-5.78h0c-11.81-6.63-14.94-11.32-15.42-14.1-.12-.72-.6-2.89,2.29-6.62,2-2.77,8.43-3.74,15.3-3.74a82.91,82.91,0,0,1,11.08.85C370.59,355.9,377.46,367.34,375.53,372.4Z"/></svg>