<svg id="Capa_1" data-name="Capa 1" xmlns="http://www.w3.org/2000/svg" viewBox="0 0 600 600"><path d="M419.76,183.54A169.87,169.87,0,0,0,179,182.87C97.25,264,117.73,399.68,218.21,453.74A18.94,18.94,0,0,1,228,470.5v65.9a57.67,57.67,0,0,0,57.6,57.6H312a57.67,57.67,0,0,0,57.6-57.6V470.5a19.38,19.38,0,0,1,10.26-17c100-54.15,120-189.28,39.86-270ZM312,555.6h-26.4a19.22,19.22,0,0,1-19.2-19.2V489.6h64.8v46.8A19.22,19.22,0,0,1,312,555.6Zm49.57-135.85a58,58,0,0,0-27,31.45H263.14a57,57,0,0,0-26.74-31.27c-77.58-41.75-94-146.68-30.35-209.81,83.17-82.54,224.79-23.68,224.79,93.48A132,132,0,0,1,361.61,419.75ZM86.4,303.56a19.2,19.2,0,0,1-19.2,19.2H21.6a19.2,19.2,0,1,1,0-38.4H67.2A19.2,19.2,0,0,1,86.4,303.56Zm62.53,151.05a19.19,19.19,0,0,1,0,27.15L116.69,514a19.17,19.17,0,0,1-13.58,5.62c-17,0-25.71-20.65-13.57-32.78l32.24-32.24a19.19,19.19,0,0,1,27.15,0ZM280.84,70.8V25.2a19.2,19.2,0,1,1,38.4,0V70.8a19.2,19.2,0,1,1-38.4,0ZM89.59,120.29a19.2,19.2,0,0,1,27.16-27.15L149,125.38c12.14,12.13,3.37,32.78-13.57,32.78a19.14,19.14,0,0,1-13.58-5.63Zm361.48,5.15,32.24-32.25a19.2,19.2,0,0,1,27.15,27.16l-32.24,32.24a19.14,19.14,0,0,1-13.58,5.63c-16.95,0-25.7-20.65-13.57-32.78ZM597.6,303.64a19.2,19.2,0,0,1-19.2,19.2H532.8a19.2,19.2,0,1,1,0-38.4h45.6A19.2,19.2,0,0,1,597.6,303.64ZM510.41,486.91a19.2,19.2,0,1,1-27.16,27.15L451,481.82a19.2,19.2,0,0,1,27.15-27.15Zm-136-202.51h-7.51a69.36,69.36,0,0,0-6-14.51l5.32-5.32a19.2,19.2,0,0,0-27.15-27.16l-5.33,5.33a69.39,69.39,0,0,0-14.51-6V229.2a19.2,19.2,0,1,0-38.4,0v7.51a69.39,69.39,0,0,0-14.51,6L261,237.41a19.2,19.2,0,0,0-27.15,27.16l5.32,5.32a68.83,68.83,0,0,0-6,14.51h-7.52a19.2,19.2,0,1,0,0,38.4h7.52a68.83,68.83,0,0,0,6,14.51l-5.32,5.32c-12.14,12.14-3.37,32.78,13.57,32.78,9.16,0,13.34-5.39,18.9-11a69.39,69.39,0,0,0,14.51,6V378a19.2,19.2,0,1,0,38.4,0v-7.51a69.39,69.39,0,0,0,14.51-6c5.37,5.37,9.6,11,18.9,11,17,0,25.71-20.65,13.58-32.78l-5.33-5.32a69.39,69.39,0,0,0,6-14.51h7.51a19.2,19.2,0,0,0,0-38.4Zm-105.6,19.2A31.2,31.2,0,1,1,300,334.8a31.24,31.24,0,0,1-31.2-31.2Z"/></svg>